<svg width="181" height="52" viewBox="0 0 181 52" fill="none" xmlns="http://www.w3.org/2000/svg">
<path d="M173.978 1.04162C177.064 1.04162 179.576 3.4905 179.576 6.5V45.5C179.576 48.5095 177.064 50.9584 173.978 50.9584H7.31095C4.22429 50.9584 1.71262 48.5095 1.71262 45.5V6.5C1.71262 3.4905 4.22429 1.04162 7.31095 1.04162H173.978ZM173.978 2.74817e-06H7.31095C3.64595 2.74817e-06 0.644287 2.92663 0.644287 6.5V45.5C0.644287 49.0734 3.64595 52 7.31095 52H173.978C177.643 52 180.644 49.0734 180.644 45.5V6.5C180.644 2.92663 177.643 2.74817e-06 173.978 2.74817e-06Z" fill="#A6A6A6"/>
<path d="M40.815 25.7191C40.7763 21.5292 44.3337 19.4908 44.4963 19.3959C42.4817 16.532 39.359 16.1407 38.2617 16.1095C35.639 15.8404 33.095 17.6396 31.759 17.6396C30.3963 17.6396 28.339 16.1355 26.1217 16.1797C23.2683 16.2226 20.599 17.8333 19.135 20.3345C16.1137 25.4344 18.367 32.9289 21.2617 37.0512C22.7097 39.0701 24.4017 41.3243 26.6163 41.245C28.783 41.1579 29.5923 39.8982 32.207 39.8982C34.7977 39.8982 35.5577 41.245 37.8163 41.1943C40.1417 41.1579 41.6057 39.1663 43.003 37.1292C44.6763 34.8152 45.3483 32.5363 45.375 32.4193C45.3203 32.4011 40.859 30.741 40.815 25.7191Z" fill="white"/>
<path d="M36.5483 13.3977C37.7137 11.9768 38.511 10.0437 38.2897 8.08203C36.603 8.15483 34.4937 9.21953 33.279 10.6092C32.2043 11.8338 31.2443 13.841 31.4923 15.7286C33.387 15.8664 35.3323 14.7965 36.5483 13.3977Z" fill="white"/>
<path d="M72.1709 40.9557H69.1429L67.4842 35.874H61.7189L60.1389 40.9557H57.1909L62.9029 23.6553H66.4309L72.1709 40.9557ZM66.9843 33.742L65.4843 29.2245C65.3256 28.763 65.0282 27.6762 64.5896 25.9654H64.5362C64.3616 26.7012 64.0802 27.788 63.6936 29.2245L62.2202 33.742H66.9843Z" fill="white"/>
<path d="M86.8602 34.5647C86.8602 36.6863 86.2722 38.3633 85.0962 39.5944C84.0428 40.6903 82.7348 41.2376 81.1735 41.2376C79.4881 41.2376 78.2775 40.6474 77.5402 39.467H77.4868V46.0385H74.6441V32.5874C74.6441 31.2536 74.6082 29.8847 74.5388 28.4807H77.0388L77.1975 30.458H77.2508C78.1988 28.9682 79.6375 28.2246 81.5682 28.2246C83.0775 28.2246 84.3375 28.8057 85.3455 29.9692C86.3562 31.134 86.8602 32.6654 86.8602 34.5647ZM83.9642 34.6661C83.9642 33.4519 83.6842 32.4509 83.1215 31.6631C82.5068 30.8415 81.6815 30.4307 80.6468 30.4307C79.9455 30.4307 79.3081 30.6595 78.7388 31.1106C78.1681 31.5656 77.7948 32.1597 77.6201 32.8955C77.5321 33.2387 77.4881 33.5195 77.4881 33.7405V35.8205C77.4881 36.7279 77.7735 37.4936 78.3442 38.1189C78.9148 38.7442 79.6562 39.0562 80.5682 39.0562C81.6388 39.0562 82.4722 38.6532 83.0682 37.8498C83.6655 37.0451 83.9642 35.9843 83.9642 34.6661Z" fill="white"/>
<path d="M101.576 34.5647C101.576 36.6863 100.988 38.3633 99.811 39.5944C98.759 40.6903 97.451 41.2376 95.8897 41.2376C94.2043 41.2376 92.9937 40.6474 92.2577 39.467H92.2043V46.0385H89.3617V32.5874C89.3617 31.2536 89.3257 29.8847 89.2563 28.4807H91.7563L91.915 30.458H91.9683C92.915 28.9682 94.3537 28.2246 96.2857 28.2246C97.7937 28.2246 99.0537 28.8057 100.064 29.9692C101.071 31.134 101.576 32.6654 101.576 34.5647ZM98.6804 34.6661C98.6804 33.4519 98.399 32.4509 97.8363 31.6631C97.2217 30.8415 96.399 30.4307 95.363 30.4307C94.6604 30.4307 94.0244 30.6595 93.4537 31.1106C92.883 31.5656 92.511 32.1597 92.3363 32.8955C92.2497 33.2387 92.2043 33.5195 92.2043 33.7405V35.8205C92.2043 36.7279 92.4897 37.4936 93.0577 38.1189C93.6283 38.7429 94.3697 39.0562 95.2844 39.0562C96.355 39.0562 97.1884 38.6532 97.7844 37.8498C98.3817 37.0451 98.6804 35.9843 98.6804 34.6661Z" fill="white"/>
<path d="M118.029 36.1037C118.029 37.5753 117.505 38.7726 116.453 39.6969C115.297 40.707 113.688 41.2114 111.62 41.2114C109.711 41.2114 108.18 40.8526 107.021 40.1337L107.68 37.8236C108.928 38.5594 110.297 38.9286 111.789 38.9286C112.86 38.9286 113.693 38.692 114.292 38.2214C114.888 37.7508 115.185 37.119 115.185 36.3312C115.185 35.6292 114.94 35.0377 114.448 34.558C113.959 34.0783 113.141 33.6324 112 33.2203C108.893 32.0906 107.341 30.4357 107.341 28.2595C107.341 26.8373 107.885 25.6712 108.975 24.7638C110.06 23.8551 111.508 23.4014 113.319 23.4014C114.933 23.4014 116.275 23.6757 117.345 24.223L116.635 26.4824C115.635 25.952 114.504 25.6868 113.239 25.6868C112.239 25.6868 111.457 25.9273 110.897 26.4057C110.424 26.8334 110.187 27.3547 110.187 27.9722C110.187 28.656 110.457 29.2215 111.001 29.6661C111.475 30.0769 112.335 30.5215 113.583 31.0012C115.109 31.6005 116.231 32.3012 116.952 33.1046C117.671 33.9054 118.029 34.9077 118.029 36.1037Z" fill="white"/>
<path d="M127.428 30.5604H124.295V36.6171C124.295 38.1576 124.847 38.9272 125.954 38.9272C126.462 38.9272 126.883 38.8843 127.216 38.7985L127.295 40.9032C126.735 41.1073 125.998 41.21 125.084 41.21C123.962 41.21 123.084 40.8759 122.451 40.209C121.82 39.5408 121.503 38.4202 121.503 36.8459V30.5578H119.636V28.4778H121.503V26.1937L124.295 25.3721V28.4778H127.428V30.5604Z" fill="white"/>
<path d="M141.566 34.6151C141.566 36.5326 141.003 38.1069 139.88 39.338C138.703 40.6055 137.14 41.2373 135.192 41.2373C133.315 41.2373 131.82 40.6302 130.706 39.416C129.591 38.2018 129.034 36.6691 129.034 34.8218C129.034 32.8887 129.607 31.3053 130.758 30.0742C131.906 28.8418 133.455 28.2256 135.403 28.2256C137.28 28.2256 138.791 28.8327 139.931 30.0482C141.022 31.2273 141.566 32.7496 141.566 34.6151ZM138.616 34.7048C138.616 33.5543 138.364 32.5676 137.854 31.7447C137.258 30.7489 136.406 30.2523 135.302 30.2523C134.159 30.2523 133.291 30.7502 132.695 31.7447C132.184 32.5689 131.932 33.5712 131.932 34.7568C131.932 35.9073 132.184 36.894 132.695 37.7156C133.31 38.7114 134.168 39.208 135.276 39.208C136.362 39.208 137.214 38.701 137.828 37.6896C138.352 36.8511 138.616 35.854 138.616 34.7048Z" fill="white"/>
<path d="M150.806 30.9182C150.524 30.8675 150.224 30.8415 149.91 30.8415C148.91 30.8415 148.136 31.2094 147.592 31.9465C147.119 32.5965 146.882 33.4181 146.882 34.41V40.9555H144.04L144.067 32.4093C144.067 30.9715 144.031 29.6624 143.96 28.482H146.436L146.54 30.8688H146.619C146.919 30.0485 147.392 29.3881 148.04 28.8928C148.674 28.4469 149.358 28.2246 150.095 28.2246C150.358 28.2246 150.595 28.2428 150.806 28.2753V30.9182Z" fill="white"/>
<path d="M163.519 34.1279C163.519 34.6245 163.486 35.0431 163.415 35.385H154.887C154.92 36.6174 155.332 37.5599 156.124 38.2099C156.843 38.791 157.772 39.0822 158.914 39.0822C160.176 39.0822 161.328 38.8859 162.364 38.492L162.81 40.416C161.599 40.9308 160.17 41.1869 158.52 41.1869C156.536 41.1869 154.979 40.6175 153.846 39.48C152.715 38.3425 152.148 36.815 152.148 34.8988C152.148 33.0177 152.675 31.4512 153.73 30.2019C154.834 28.8681 156.326 28.2012 158.203 28.2012C160.047 28.2012 161.443 28.8681 162.391 30.2019C163.142 31.2614 163.519 32.5718 163.519 34.1279ZM160.808 33.409C160.827 32.5874 160.642 31.8776 160.256 31.2783C159.764 30.5074 159.008 30.1226 157.991 30.1226C157.062 30.1226 156.306 30.4983 155.728 31.2523C155.255 31.8516 154.974 32.5705 154.887 33.4077H160.808V33.409Z" fill="white"/>
<path d="M56.9294 19V9.19727H59.6365C63.0909 9.19727 64.8181 10.79 64.8181 13.9756C64.8181 15.4886 64.3373 16.7054 63.3757 17.626C62.4187 18.542 61.1358 19 59.5271 19H56.9294ZM58.0779 10.2363V17.9609H59.5408C60.8259 17.9609 61.8263 17.6169 62.5417 16.9287C63.2572 16.2406 63.615 15.2653 63.615 14.0029C63.615 11.4919 62.2797 10.2363 59.6091 10.2363H58.0779Z" fill="white"/>
<path d="M67.1697 10.2227C66.9692 10.2227 66.7983 10.1543 66.657 10.0176C66.5157 9.88086 66.4451 9.70768 66.4451 9.49805C66.4451 9.28841 66.5157 9.11523 66.657 8.97852C66.7983 8.83724 66.9692 8.7666 67.1697 8.7666C67.3748 8.7666 67.5479 8.83724 67.6892 8.97852C67.835 9.11523 67.908 9.28841 67.908 9.49805C67.908 9.69857 67.835 9.86947 67.6892 10.0107C67.5479 10.152 67.3748 10.2227 67.1697 10.2227ZM67.7166 19H66.5955V12H67.7166V19Z" fill="white"/>
<path d="M69.5623 18.7471V17.5439C70.1729 17.9951 70.8451 18.2207 71.5789 18.2207C72.5632 18.2207 73.0554 17.8926 73.0554 17.2363C73.0554 17.0495 73.0121 16.8923 72.9255 16.7646C72.8435 16.6325 72.7296 16.5163 72.5837 16.416C72.4425 16.3158 72.2738 16.2269 72.0779 16.1494C71.8865 16.0674 71.6791 15.9831 71.4558 15.8965C71.1459 15.7734 70.8725 15.6504 70.6355 15.5273C70.4031 15.3997 70.2071 15.2585 70.0476 15.1035C69.8927 14.944 69.7742 14.764 69.6921 14.5635C69.6147 14.363 69.5759 14.1283 69.5759 13.8594C69.5759 13.5312 69.6511 13.2419 69.8015 12.9912C69.9519 12.736 70.1524 12.5241 70.4031 12.3555C70.6537 12.1823 70.9386 12.0524 71.2576 11.9658C71.5811 11.8792 71.9138 11.8359 72.2556 11.8359C72.8617 11.8359 73.4041 11.9408 73.8826 12.1504V13.2852C73.3676 12.9479 72.7751 12.7793 72.1052 12.7793C71.8956 12.7793 71.7065 12.8044 71.5378 12.8545C71.3692 12.9001 71.2234 12.9661 71.1003 13.0527C70.9819 13.1393 70.8884 13.2441 70.8201 13.3672C70.7563 13.4857 70.7244 13.6178 70.7244 13.7637C70.7244 13.946 70.7563 14.0986 70.8201 14.2217C70.8884 14.3447 70.9864 14.4541 71.114 14.5498C71.2416 14.6455 71.3966 14.7321 71.5789 14.8096C71.7611 14.887 71.9685 14.9714 72.2009 15.0625C72.5108 15.181 72.7888 15.304 73.0349 15.4316C73.281 15.5547 73.4906 15.696 73.6638 15.8555C73.837 16.0104 73.9692 16.1904 74.0603 16.3955C74.156 16.6006 74.2039 16.8444 74.2039 17.127C74.2039 17.4733 74.1264 17.7741 73.9714 18.0293C73.821 18.2845 73.6182 18.4964 73.363 18.665C73.1078 18.8337 72.8139 18.959 72.4812 19.041C72.1485 19.123 71.7999 19.1641 71.4353 19.1641C70.7153 19.1641 70.0909 19.0251 69.5623 18.7471Z" fill="white"/>
<path d="M77.0818 17.9883H77.0544V22.2197H75.9333V12H77.0544V13.2305H77.0818C77.6332 12.3008 78.4399 11.8359 79.5017 11.8359C80.4041 11.8359 81.1082 12.1504 81.614 12.7793C82.1199 13.4036 82.3728 14.2422 82.3728 15.2949C82.3728 16.4661 82.088 17.4049 81.5183 18.1113C80.9486 18.8132 80.1694 19.1641 79.1804 19.1641C78.2735 19.1641 77.574 18.7721 77.0818 17.9883ZM77.0544 15.165V16.1426C77.0544 16.7214 77.2413 17.2135 77.615 17.6191C77.9932 18.0202 78.4718 18.2207 79.0505 18.2207C79.7296 18.2207 80.2605 17.9609 80.6433 17.4414C81.0307 16.9219 81.2244 16.1995 81.2244 15.2744C81.2244 14.4951 81.0444 13.8844 80.6843 13.4424C80.3243 13.0003 79.8367 12.7793 79.2214 12.7793C78.5697 12.7793 78.0457 13.0072 77.6492 13.4629C77.2527 13.9141 77.0544 14.4814 77.0544 15.165Z" fill="white"/>
<path d="M87.0896 19.1641C86.0551 19.1641 85.2279 18.8382 84.6082 18.1865C83.9929 17.5303 83.6853 16.6621 83.6853 15.582C83.6853 14.4062 84.0066 13.488 84.6492 12.8271C85.2917 12.1663 86.1599 11.8359 87.2537 11.8359C88.2973 11.8359 89.1108 12.1572 89.6941 12.7998C90.282 13.4424 90.5759 14.3333 90.5759 15.4727C90.5759 16.5892 90.2592 17.4847 89.6257 18.1592C88.9968 18.8291 88.1514 19.1641 87.0896 19.1641ZM87.1716 12.7793C86.4516 12.7793 85.8819 13.0254 85.4626 13.5176C85.0434 14.0052 84.8337 14.6797 84.8337 15.541C84.8337 16.3704 85.0457 17.0244 85.4695 17.5029C85.8933 17.9814 86.4607 18.2207 87.1716 18.2207C87.8962 18.2207 88.4522 17.986 88.8396 17.5166C89.2315 17.0472 89.4275 16.3796 89.4275 15.5137C89.4275 14.6387 89.2315 13.9642 88.8396 13.4902C88.4522 13.0163 87.8962 12.7793 87.1716 12.7793Z" fill="white"/>
<path d="M98.1775 19H97.0564V15.0078C97.0564 13.5221 96.5141 12.7793 95.4294 12.7793C94.8689 12.7793 94.4041 12.9912 94.0349 13.415C93.6703 13.8343 93.488 14.3652 93.488 15.0078V19H92.3669V12H93.488V13.1621H93.5154C94.044 12.278 94.8097 11.8359 95.8123 11.8359C96.5779 11.8359 97.1635 12.0843 97.5691 12.5811C97.9747 13.0732 98.1775 13.7865 98.1775 14.7207V19Z" fill="white"/>
<path d="M101.418 19H100.297V12H101.418V19ZM102.423 8.43164L100.632 10.6738H99.7634L101.288 8.43164H102.423Z" fill="white"/>
<path d="M109.19 12L106.401 19H105.301L102.648 12H103.879L105.656 17.0859C105.788 17.4596 105.87 17.7855 105.902 18.0635H105.929C105.975 17.7126 106.048 17.3958 106.148 17.1133L108.008 12H109.19Z" fill="white"/>
<path d="M116.026 15.7803H111.084C111.102 16.5596 111.312 17.1611 111.713 17.585C112.114 18.0088 112.665 18.2207 113.367 18.2207C114.155 18.2207 114.88 17.9609 115.541 17.4414V18.4941C114.926 18.9408 114.112 19.1641 113.1 19.1641C112.111 19.1641 111.334 18.8473 110.769 18.2139C110.204 17.5758 109.922 16.6803 109.922 15.5273C109.922 14.4382 110.229 13.5518 110.844 12.8682C111.464 12.18 112.232 11.8359 113.148 11.8359C114.064 11.8359 114.773 12.1322 115.274 12.7246C115.775 13.3171 116.026 14.1396 116.026 15.1924V15.7803ZM114.878 14.8301C114.873 14.1829 114.716 13.6794 114.406 13.3193C114.101 12.9593 113.675 12.7793 113.128 12.7793C112.599 12.7793 112.15 12.9684 111.781 13.3467C111.412 13.7249 111.184 14.2194 111.097 14.8301H114.878Z" fill="white"/>
<path d="M118.849 19H117.728V8.63672H118.849V19Z" fill="white"/>
<path d="M130.771 19H129.65V15.0078C129.65 13.5221 129.108 12.7793 128.023 12.7793C127.463 12.7793 126.998 12.9912 126.629 13.415C126.264 13.8343 126.082 14.3652 126.082 15.0078V19H124.961V12H126.082V13.1621H126.109C126.638 12.278 127.403 11.8359 128.406 11.8359C129.172 11.8359 129.757 12.0843 130.163 12.5811C130.568 13.0732 130.771 13.7865 130.771 14.7207V19Z" fill="white"/>
<path d="M137.901 19H136.78V17.9062H136.753C136.265 18.7448 135.547 19.1641 134.599 19.1641C133.902 19.1641 133.355 18.9795 132.959 18.6104C132.567 18.2412 132.371 17.7513 132.371 17.1406C132.371 15.8327 133.141 15.0716 134.681 14.8574L136.78 14.5635C136.78 13.374 136.299 12.7793 135.338 12.7793C134.495 12.7793 133.733 13.0664 133.054 13.6406V12.4922C133.743 12.0547 134.536 11.8359 135.433 11.8359C137.079 11.8359 137.901 12.7064 137.901 14.4473V19ZM136.78 15.459L135.092 15.6914C134.572 15.7643 134.18 15.8942 133.916 16.0811C133.651 16.2633 133.519 16.5892 133.519 17.0586C133.519 17.4004 133.64 17.6807 133.882 17.8994C134.128 18.1136 134.454 18.2207 134.859 18.2207C135.415 18.2207 135.873 18.027 136.233 17.6396C136.598 17.2477 136.78 16.7533 136.78 16.1562V15.459Z" fill="white"/>
</svg>
