<svg width="182" height="53" viewBox="0 0 182 53" fill="none" xmlns="http://www.w3.org/2000/svg">
<g filter="url(#filter0_dd_5_9221)">
<rect x="11" y="11" width="160" height="28" rx="8" fill="white" shape-rendering="crispEdges"/>
<path d="M27 33C31.4183 33 35 29.4183 35 25C35 20.5817 31.4183 17 27 17C22.5817 17 19 20.5817 19 25C19 29.4183 22.5817 33 27 33Z" stroke="#2E2E2E" stroke-linecap="round" stroke-linejoin="round"/>
<path d="M29.4 28.2002L27.4688 26.269C27.1687 25.969 27.0001 25.5621 27 25.1378V20.2002" stroke="#2E2E2E" stroke-linecap="round" stroke-linejoin="round"/>
<path d="M47.704 30.168C46.9387 30.168 46.2573 29.9813 45.66 29.608C45.0627 29.2253 44.5913 28.6793 44.246 27.97C43.9007 27.2513 43.728 26.3973 43.728 25.408C43.728 24.6613 43.826 23.9987 44.022 23.42C44.2273 22.832 44.512 22.328 44.876 21.908C45.24 21.488 45.6693 21.1707 46.164 20.956C46.6587 20.7413 47.1953 20.634 47.774 20.634C48.334 20.634 48.824 20.7507 49.244 20.984C49.6733 21.208 50.014 21.4647 50.266 21.754L49.692 22.44C49.4493 22.1693 49.1693 21.9547 48.852 21.796C48.544 21.628 48.1893 21.544 47.788 21.544C47.1907 21.544 46.668 21.7027 46.22 22.02C45.772 22.328 45.422 22.7713 45.17 23.35C44.9273 23.9193 44.806 24.596 44.806 25.38C44.806 26.1733 44.9227 26.8593 45.156 27.438C45.3987 28.0167 45.7393 28.4647 46.178 28.782C46.626 29.0993 47.1487 29.258 47.746 29.258C48.194 29.258 48.5953 29.1647 48.95 28.978C49.3047 28.7913 49.6313 28.53 49.93 28.194L50.504 28.838C50.1493 29.258 49.7433 29.5847 49.286 29.818C48.8287 30.0513 48.3013 30.168 47.704 30.168ZM53.7007 30.168C53.3274 30.168 52.9914 30.0933 52.6927 29.944C52.394 29.7947 52.156 29.58 51.9787 29.3C51.8014 29.0107 51.7127 28.6653 51.7127 28.264C51.7127 27.5173 52.0487 26.948 52.7207 26.556C53.402 26.1547 54.4754 25.8747 55.9407 25.716C55.9407 25.4173 55.8987 25.128 55.8147 24.848C55.74 24.5587 55.5954 24.33 55.3807 24.162C55.1754 23.9847 54.8767 23.896 54.4847 23.896C54.074 23.896 53.6914 23.9753 53.3367 24.134C52.9914 24.2927 52.688 24.4607 52.4267 24.638L52.0207 23.938C52.2167 23.8073 52.45 23.672 52.7207 23.532C52.9914 23.392 53.29 23.2753 53.6167 23.182C53.9434 23.0887 54.2887 23.042 54.6527 23.042C55.194 23.042 55.6327 23.1587 55.9687 23.392C56.314 23.6253 56.5614 23.9473 56.7107 24.358C56.8694 24.7687 56.9487 25.2493 56.9487 25.8V30H56.1087L56.0247 29.174H55.9827C55.656 29.4447 55.3014 29.678 54.9187 29.874C54.536 30.07 54.13 30.168 53.7007 30.168ZM53.9667 29.342C54.312 29.342 54.6387 29.2627 54.9467 29.104C55.2547 28.936 55.586 28.698 55.9407 28.39V26.402C55.138 26.4953 54.5034 26.626 54.0367 26.794C53.57 26.9527 53.234 27.1487 53.0287 27.382C52.8234 27.6153 52.7207 27.886 52.7207 28.194C52.7207 28.5953 52.842 28.8893 53.0847 29.076C53.3367 29.2533 53.6307 29.342 53.9667 29.342ZM61.4564 30.168C60.6164 30.168 59.9397 29.86 59.4264 29.244C58.9224 28.6187 58.6704 27.7413 58.6704 26.612C58.6704 25.884 58.8057 25.254 59.0764 24.722C59.3564 24.19 59.7204 23.7793 60.1684 23.49C60.6164 23.1913 61.1017 23.042 61.6244 23.042C62.0257 23.042 62.371 23.112 62.6604 23.252C62.959 23.392 63.2577 23.588 63.5564 23.84L63.5144 22.664V20.004H64.5224V30H63.6824L63.5984 29.174H63.5564C63.295 29.4447 62.9824 29.678 62.6184 29.874C62.2637 30.07 61.8764 30.168 61.4564 30.168ZM61.6804 29.3C62.007 29.3 62.3197 29.2207 62.6184 29.062C62.917 28.894 63.2157 28.6513 63.5144 28.334V24.652C63.2064 24.3813 62.9124 24.19 62.6324 24.078C62.3617 23.966 62.077 23.91 61.7784 23.91C61.3957 23.91 61.0457 24.0267 60.7284 24.26C60.4204 24.484 60.173 24.8013 59.9864 25.212C59.809 25.6133 59.7204 26.08 59.7204 26.612C59.7204 27.4427 59.8884 28.1007 60.2244 28.586C60.5697 29.062 61.055 29.3 61.6804 29.3ZM68.439 30.168C68.0657 30.168 67.7297 30.0933 67.431 29.944C67.1323 29.7947 66.8943 29.58 66.717 29.3C66.5397 29.0107 66.451 28.6653 66.451 28.264C66.451 27.5173 66.787 26.948 67.459 26.556C68.1403 26.1547 69.2137 25.8747 70.679 25.716C70.679 25.4173 70.637 25.128 70.553 24.848C70.4783 24.5587 70.3337 24.33 70.119 24.162C69.9137 23.9847 69.615 23.896 69.223 23.896C68.8123 23.896 68.4297 23.9753 68.075 24.134C67.7297 24.2927 67.4263 24.4607 67.165 24.638L66.759 23.938C66.955 23.8073 67.1883 23.672 67.459 23.532C67.7297 23.392 68.0283 23.2753 68.355 23.182C68.6817 23.0887 69.027 23.042 69.391 23.042C69.9323 23.042 70.371 23.1587 70.707 23.392C71.0523 23.6253 71.2997 23.9473 71.449 24.358C71.6077 24.7687 71.687 25.2493 71.687 25.8V30H70.847L70.763 29.174H70.721C70.3943 29.4447 70.0397 29.678 69.657 29.874C69.2743 30.07 68.8683 30.168 68.439 30.168ZM68.705 29.342C69.0503 29.342 69.377 29.2627 69.685 29.104C69.993 28.936 70.3243 28.698 70.679 28.39V26.402C69.8763 26.4953 69.2417 26.626 68.775 26.794C68.3083 26.9527 67.9723 27.1487 67.767 27.382C67.5617 27.6153 67.459 27.886 67.459 28.194C67.459 28.5953 67.5803 28.8893 67.823 29.076C68.075 29.2533 68.369 29.342 68.705 29.342ZM75.6487 30.168C75.1633 30.168 74.7013 30.0793 74.2627 29.902C73.824 29.7153 73.446 29.4913 73.1287 29.23L73.6467 28.544C73.936 28.7773 74.2393 28.9733 74.5567 29.132C74.8833 29.2907 75.2613 29.37 75.6907 29.37C76.1573 29.37 76.5073 29.258 76.7407 29.034C76.974 28.81 77.0907 28.544 77.0907 28.236C77.0907 27.9933 77.0113 27.7927 76.8527 27.634C76.694 27.466 76.4933 27.326 76.2507 27.214C76.0173 27.0927 75.77 26.9853 75.5087 26.892C75.1913 26.78 74.874 26.6447 74.5567 26.486C74.2393 26.3273 73.9733 26.1267 73.7587 25.884C73.5533 25.6413 73.4507 25.3287 73.4507 24.946C73.4507 24.414 73.6513 23.966 74.0527 23.602C74.4633 23.2287 75.0327 23.042 75.7607 23.042C76.1713 23.042 76.554 23.1167 76.9087 23.266C77.2633 23.4153 77.5667 23.5927 77.8187 23.798L77.3287 24.456C77.0953 24.288 76.8527 24.148 76.6007 24.036C76.358 23.9147 76.078 23.854 75.7607 23.854C75.3127 23.854 74.9813 23.9613 74.7667 24.176C74.552 24.3813 74.4447 24.6193 74.4447 24.89C74.4447 25.114 74.5147 25.3007 74.6547 25.45C74.804 25.59 74.9953 25.7113 75.2287 25.814C75.462 25.9167 75.7093 26.0193 75.9707 26.122C76.3067 26.2433 76.6333 26.3833 76.9507 26.542C77.2773 26.6913 77.548 26.892 77.7627 27.144C77.9773 27.396 78.0847 27.7413 78.0847 28.18C78.0847 28.5347 77.9913 28.866 77.8047 29.174C77.618 29.4727 77.3427 29.7153 76.9787 29.902C76.6147 30.0793 76.1713 30.168 75.6487 30.168ZM81.6582 30.168C80.9488 30.168 80.4588 29.9627 80.1882 29.552C79.9175 29.1413 79.7822 28.6093 79.7822 27.956V24.05H78.7602V23.28L79.8242 23.21L79.9502 21.292H80.8042V23.21H82.6662V24.05H80.8042V27.984C80.8042 28.404 80.8788 28.7353 81.0282 28.978C81.1868 29.2113 81.4715 29.328 81.8822 29.328C82.0035 29.328 82.1342 29.3093 82.2742 29.272C82.4235 29.2347 82.5542 29.1927 82.6662 29.146L82.8762 29.916C82.6895 29.9813 82.4842 30.0373 82.2602 30.084C82.0455 30.14 81.8448 30.168 81.6582 30.168ZM84.2349 30V23.21H85.0749L85.1589 24.456H85.2009C85.4343 24.0267 85.7143 23.686 86.0409 23.434C86.3769 23.1727 86.7409 23.042 87.1329 23.042C87.2729 23.042 87.3989 23.056 87.5109 23.084C87.6229 23.1027 87.7303 23.1353 87.8329 23.182L87.6369 24.078C87.5249 24.0407 87.4223 24.0127 87.3289 23.994C87.2449 23.9753 87.1329 23.966 86.9929 23.966C86.7036 23.966 86.4003 24.0873 86.0829 24.33C85.7656 24.5633 85.4856 24.9787 85.2429 25.576V30H84.2349ZM91.446 30.168C90.8953 30.168 90.382 30.028 89.906 29.748C89.43 29.468 89.0473 29.0667 88.758 28.544C88.4687 28.012 88.324 27.368 88.324 26.612C88.324 25.8653 88.4687 25.226 88.758 24.694C89.0473 24.1527 89.43 23.742 89.906 23.462C90.382 23.182 90.8953 23.042 91.446 23.042C91.9967 23.042 92.5053 23.182 92.972 23.462C93.448 23.742 93.8307 24.1527 94.12 24.694C94.4187 25.226 94.568 25.8653 94.568 26.612C94.568 27.368 94.4187 28.012 94.12 28.544C93.8307 29.0667 93.448 29.468 92.972 29.748C92.5053 30.028 91.9967 30.168 91.446 30.168ZM91.446 29.314C91.8567 29.314 92.216 29.202 92.524 28.978C92.8413 28.754 93.084 28.4413 93.252 28.04C93.4293 27.6293 93.518 27.1533 93.518 26.612C93.518 26.08 93.4293 25.6087 93.252 25.198C93.084 24.7873 92.8413 24.47 92.524 24.246C92.216 24.0127 91.8567 23.896 91.446 23.896C91.0447 23.896 90.6853 24.0127 90.368 24.246C90.06 24.47 89.8173 24.7873 89.64 25.198C89.472 25.6087 89.388 26.08 89.388 26.612C89.388 27.1533 89.472 27.6293 89.64 28.04C89.8173 28.4413 90.06 28.754 90.368 28.978C90.6853 29.202 91.0447 29.314 91.446 29.314ZM101.907 30.168C101.31 30.168 100.769 30.028 100.283 29.748C99.798 29.4587 99.4106 29.0527 99.1213 28.53C98.832 27.998 98.6873 27.3587 98.6873 26.612C98.6873 25.884 98.832 25.254 99.1213 24.722C99.4106 24.1807 99.784 23.7653 100.241 23.476C100.708 23.1867 101.203 23.042 101.725 23.042C102.285 23.042 102.766 23.1727 103.167 23.434C103.569 23.6953 103.872 24.064 104.077 24.54C104.292 25.0067 104.399 25.5667 104.399 26.22C104.399 26.3227 104.395 26.43 104.385 26.542C104.376 26.654 104.362 26.752 104.343 26.836H99.4853L99.4713 26.094H103.489C103.489 25.366 103.335 24.8153 103.027 24.442C102.719 24.0593 102.29 23.868 101.739 23.868C101.403 23.868 101.077 23.966 100.759 24.162C100.442 24.3487 100.181 24.6473 99.9753 25.058C99.77 25.4593 99.6673 25.9773 99.6673 26.612C99.6673 27.2187 99.7746 27.7227 99.9893 28.124C100.204 28.5253 100.489 28.8287 100.843 29.034C101.207 29.2393 101.604 29.342 102.033 29.342C102.369 29.342 102.677 29.2907 102.957 29.188C103.237 29.0853 103.503 28.9547 103.755 28.796L104.133 29.468C103.844 29.6547 103.517 29.818 103.153 29.958C102.799 30.098 102.383 30.168 101.907 30.168ZM106.11 30V23.21H106.95L107.034 24.218H107.076C107.375 23.8913 107.701 23.616 108.056 23.392C108.42 23.1587 108.798 23.042 109.19 23.042C109.722 23.042 110.133 23.1633 110.422 23.406C110.721 23.6393 110.935 23.9567 111.066 24.358C111.43 23.966 111.794 23.6487 112.158 23.406C112.531 23.1633 112.919 23.042 113.32 23.042C114.02 23.042 114.538 23.266 114.874 23.714C115.21 24.162 115.378 24.82 115.378 25.688V30H114.356V25.814C114.356 25.1607 114.249 24.6847 114.034 24.386C113.829 24.0873 113.493 23.938 113.026 23.938C112.755 23.938 112.471 24.0313 112.172 24.218C111.883 24.3953 111.575 24.666 111.248 25.03V30H110.226V25.814C110.226 25.1607 110.119 24.6847 109.904 24.386C109.699 24.0873 109.367 23.938 108.91 23.938C108.369 23.938 107.771 24.302 107.118 25.03V30H106.11ZM122.005 30.168C121.632 30.168 121.296 30.0933 120.997 29.944C120.699 29.7947 120.461 29.58 120.283 29.3C120.106 29.0107 120.017 28.6653 120.017 28.264C120.017 27.5173 120.353 26.948 121.025 26.556C121.707 26.1547 122.78 25.8747 124.245 25.716C124.245 25.4173 124.203 25.128 124.119 24.848C124.045 24.5587 123.9 24.33 123.685 24.162C123.48 23.9847 123.181 23.896 122.789 23.896C122.379 23.896 121.996 23.9753 121.641 24.134C121.296 24.2927 120.993 24.4607 120.731 24.638L120.325 23.938C120.521 23.8073 120.755 23.672 121.025 23.532C121.296 23.392 121.595 23.2753 121.921 23.182C122.248 23.0887 122.593 23.042 122.957 23.042C123.499 23.042 123.937 23.1587 124.273 23.392C124.619 23.6253 124.866 23.9473 125.015 24.358C125.174 24.7687 125.253 25.2493 125.253 25.8V30H124.413L124.329 29.174H124.287C123.961 29.4447 123.606 29.678 123.223 29.874C122.841 30.07 122.435 30.168 122.005 30.168ZM122.271 29.342C122.617 29.342 122.943 29.2627 123.251 29.104C123.559 28.936 123.891 28.698 124.245 28.39V26.402C123.443 26.4953 122.808 26.626 122.341 26.794C121.875 26.9527 121.539 27.1487 121.333 27.382C121.128 27.6153 121.025 27.886 121.025 28.194C121.025 28.5953 121.147 28.8893 121.389 29.076C121.641 29.2533 121.935 29.342 122.271 29.342ZM127.479 30V23.21H128.319L128.403 24.218H128.445C128.772 23.882 129.117 23.602 129.481 23.378C129.854 23.154 130.27 23.042 130.727 23.042C131.446 23.042 131.968 23.266 132.295 23.714C132.631 24.162 132.799 24.82 132.799 25.688V30H131.777V25.814C131.777 25.1607 131.67 24.6847 131.455 24.386C131.25 24.0873 130.909 23.938 130.433 23.938C130.069 23.938 129.742 24.0313 129.453 24.218C129.173 24.3953 128.851 24.666 128.487 25.03V30H127.479ZM136.621 30.168C136.247 30.168 135.911 30.0933 135.613 29.944C135.314 29.7947 135.076 29.58 134.899 29.3C134.721 29.0107 134.633 28.6653 134.633 28.264C134.633 27.5173 134.969 26.948 135.641 26.556C136.322 26.1547 137.395 25.8747 138.861 25.716C138.861 25.4173 138.819 25.128 138.735 24.848C138.66 24.5587 138.515 24.33 138.301 24.162C138.095 23.9847 137.797 23.896 137.405 23.896C136.994 23.896 136.611 23.9753 136.257 24.134C135.911 24.2927 135.608 24.4607 135.347 24.638L134.941 23.938C135.137 23.8073 135.37 23.672 135.641 23.532C135.911 23.392 136.21 23.2753 136.537 23.182C136.863 23.0887 137.209 23.042 137.573 23.042C138.114 23.042 138.553 23.1587 138.889 23.392C139.234 23.6253 139.481 23.9473 139.631 24.358C139.789 24.7687 139.869 25.2493 139.869 25.8V30H139.029L138.945 29.174H138.903C138.576 29.4447 138.221 29.678 137.839 29.874C137.456 30.07 137.05 30.168 136.621 30.168ZM136.887 29.342C137.232 29.342 137.559 29.2627 137.867 29.104C138.175 28.936 138.506 28.698 138.861 28.39V26.402C138.058 26.4953 137.423 26.626 136.957 26.794C136.49 26.9527 136.154 27.1487 135.949 27.382C135.743 27.6153 135.641 27.886 135.641 28.194C135.641 28.5953 135.762 28.8893 136.005 29.076C136.257 29.2533 136.551 29.342 136.887 29.342ZM137.405 21.978L136.873 21.46L138.833 19.164L139.561 19.836L137.405 21.978ZM143.2 30.168C142.939 30.168 142.724 30.112 142.556 30C142.398 29.8973 142.281 29.7433 142.206 29.538C142.132 29.3233 142.094 29.062 142.094 28.754V20.004H143.102V28.838C143.102 29.006 143.135 29.1273 143.2 29.202C143.266 29.2767 143.34 29.314 143.424 29.314C143.452 29.314 143.485 29.314 143.522 29.314C143.56 29.3047 143.611 29.2953 143.676 29.286L143.816 30.07C143.742 30.098 143.653 30.1213 143.55 30.14C143.457 30.1587 143.34 30.168 143.2 30.168ZM145.594 30V23.21H146.602V30H145.594ZM146.112 21.754C145.916 21.754 145.748 21.6887 145.608 21.558C145.478 21.4273 145.412 21.2547 145.412 21.04C145.412 20.844 145.478 20.6807 145.608 20.55C145.748 20.4193 145.916 20.354 146.112 20.354C146.318 20.354 146.486 20.4193 146.616 20.55C146.747 20.6807 146.812 20.844 146.812 21.04C146.812 21.2547 146.747 21.4273 146.616 21.558C146.486 21.6887 146.318 21.754 146.112 21.754ZM150.721 30.168C150.236 30.168 149.774 30.0793 149.335 29.902C148.896 29.7153 148.518 29.4913 148.201 29.23L148.719 28.544C149.008 28.7773 149.312 28.9733 149.629 29.132C149.956 29.2907 150.334 29.37 150.763 29.37C151.23 29.37 151.58 29.258 151.813 29.034C152.046 28.81 152.163 28.544 152.163 28.236C152.163 27.9933 152.084 27.7927 151.925 27.634C151.766 27.466 151.566 27.326 151.323 27.214C151.09 27.0927 150.842 26.9853 150.581 26.892C150.264 26.78 149.946 26.6447 149.629 26.486C149.312 26.3273 149.046 26.1267 148.831 25.884C148.626 25.6413 148.523 25.3287 148.523 24.946C148.523 24.414 148.724 23.966 149.125 23.602C149.536 23.2287 150.105 23.042 150.833 23.042C151.244 23.042 151.626 23.1167 151.981 23.266C152.336 23.4153 152.639 23.5927 152.891 23.798L152.401 24.456C152.168 24.288 151.925 24.148 151.673 24.036C151.43 23.9147 151.15 23.854 150.833 23.854C150.385 23.854 150.054 23.9613 149.839 24.176C149.624 24.3813 149.517 24.6193 149.517 24.89C149.517 25.114 149.587 25.3007 149.727 25.45C149.876 25.59 150.068 25.7113 150.301 25.814C150.534 25.9167 150.782 26.0193 151.043 26.122C151.379 26.2433 151.706 26.3833 152.023 26.542C152.35 26.6913 152.62 26.892 152.835 27.144C153.05 27.396 153.157 27.7413 153.157 28.18C153.157 28.5347 153.064 28.866 152.877 29.174C152.69 29.4727 152.415 29.7153 152.051 29.902C151.687 30.0793 151.244 30.168 150.721 30.168ZM157.497 30.168C156.9 30.168 156.358 30.028 155.873 29.748C155.388 29.4587 155 29.0527 154.711 28.53C154.422 27.998 154.277 27.3587 154.277 26.612C154.277 25.884 154.422 25.254 154.711 24.722C155 24.1807 155.374 23.7653 155.831 23.476C156.298 23.1867 156.792 23.042 157.315 23.042C157.875 23.042 158.356 23.1727 158.757 23.434C159.158 23.6953 159.462 24.064 159.667 24.54C159.882 25.0067 159.989 25.5667 159.989 26.22C159.989 26.3227 159.984 26.43 159.975 26.542C159.966 26.654 159.952 26.752 159.933 26.836H155.075L155.061 26.094H159.079C159.079 25.366 158.925 24.8153 158.617 24.442C158.309 24.0593 157.88 23.868 157.329 23.868C156.993 23.868 156.666 23.966 156.349 24.162C156.032 24.3487 155.77 24.6473 155.565 25.058C155.36 25.4593 155.257 25.9773 155.257 26.612C155.257 27.2187 155.364 27.7227 155.579 28.124C155.794 28.5253 156.078 28.8287 156.433 29.034C156.797 29.2393 157.194 29.342 157.623 29.342C157.959 29.342 158.267 29.2907 158.547 29.188C158.827 29.0853 159.093 28.9547 159.345 28.796L159.723 29.468C159.434 29.6547 159.107 29.818 158.743 29.958C158.388 30.098 157.973 30.168 157.497 30.168Z" fill="#2E2E2E"/>
</g>
<defs>
<filter id="filter0_dd_5_9221" x="0" y="0.5" width="182" height="52.5" filterUnits="userSpaceOnUse" color-interpolation-filters="sRGB">
<feFlood flood-opacity="0" result="BackgroundImageFix"/>
<feColorMatrix in="SourceAlpha" type="matrix" values="0 0 0 0 0 0 0 0 0 0 0 0 0 0 0 0 0 0 127 0" result="hardAlpha"/>
<feMorphology radius="0.5" operator="erode" in="SourceAlpha" result="effect1_dropShadow_5_9221"/>
<feOffset dx="2.5" dy="5.5"/>
<feGaussianBlur stdDeviation="4.5"/>
<feComposite in2="hardAlpha" operator="out"/>
<feColorMatrix type="matrix" values="0 0 0 0 1 0 0 0 0 0.839216 0 0 0 0 0.678431 0 0 0 0.66 0"/>
<feBlend mode="normal" in2="BackgroundImageFix" result="effect1_dropShadow_5_9221"/>
<feColorMatrix in="SourceAlpha" type="matrix" values="0 0 0 0 0 0 0 0 0 0 0 0 0 0 0 0 0 0 127 0" result="hardAlpha"/>
<feMorphology radius="0.5" operator="erode" in="SourceAlpha" result="effect2_dropShadow_5_9221"/>
<feOffset dx="-3" dy="-2.5"/>
<feGaussianBlur stdDeviation="4.25"/>
<feComposite in2="hardAlpha" operator="out"/>
<feColorMatrix type="matrix" values="0 0 0 0 1 0 0 0 0 0.403922 0 0 0 0 0.203922 0 0 0 0.65 0"/>
<feBlend mode="normal" in2="effect1_dropShadow_5_9221" result="effect2_dropShadow_5_9221"/>
<feBlend mode="normal" in="SourceGraphic" in2="effect2_dropShadow_5_9221" result="shape"/>
</filter>
</defs>
</svg>
