<svg width="56" height="56" viewBox="0 0 56 56" fill="none" xmlns="http://www.w3.org/2000/svg">
<rect width="56" height="56" rx="28" fill="#FFF5EA"/>
<path fill-rule="evenodd" clip-rule="evenodd" d="M34.372 18.7248C33.6049 18.7164 32.865 19.0087 32.3107 19.5391L30.5804 21.2696L34.7301 25.4193L36.4552 23.6943L36.461 23.6882C36.9913 23.1338 37.2834 22.3938 37.2748 21.6267C37.2662 20.8596 36.9576 20.1264 36.415 19.584C35.8725 19.0416 35.1391 18.7332 34.372 18.7248ZM33.6694 26.4799L29.5198 22.3303L20.0679 31.7829C19.7363 32.1144 19.5103 32.5367 19.4183 32.9965L18.6323 36.9265C18.6077 37.0495 18.6462 37.1766 18.7348 37.2652C18.8235 37.3539 18.9506 37.3924 19.0736 37.3678L23.0026 36.5818C23.4624 36.4898 23.8846 36.2638 24.2162 35.9322L33.6694 26.4799Z" fill="#2E2E2E"/>
</svg>
