<svg width="136" height="32" viewBox="0 0 136 32" fill="none" xmlns="http://www.w3.org/2000/svg">
<rect width="32" height="32" rx="6.4" fill="white"/>
<rect width="32" height="32" rx="6.4" fill="url(#paint0_linear_3248_5883)"/>
<path fill-rule="evenodd" clip-rule="evenodd" d="M23.1897 20.1066L8.75049 20.1066V20.9331C8.75049 21.078 8.77013 21.2208 8.80793 21.358C8.85896 21.6932 9.01564 22.0059 9.25834 22.2486C9.55839 22.5486 9.96536 22.7172 10.3897 22.7172H21.5897C22.0141 22.7172 22.421 22.5486 22.7211 22.2486C23.0211 21.9485 23.1897 21.5415 23.1897 21.1172V20.1066ZM23.2324 18.9066H8.75049V9.42129C9.16064 9.42129 9.55513 9.57873 9.85249 9.86122L11.7196 11.6343L10.3152 13.0387L11.4734 14.1969C11.942 14.6655 12.7018 14.6655 13.1705 14.1969L14.3286 13.0387L12.9222 11.6322L14.8881 9.7652C15.1855 9.48271 15.58 9.3252 15.9901 9.3252C16.4003 9.3252 16.7947 9.48271 17.0921 9.7652L19.0199 11.5963L17.5779 13.0383L18.7361 14.1965C19.2047 14.6651 19.9645 14.6651 20.4331 14.1965L21.5913 13.0383L20.2244 11.6713L22.1304 9.86122C22.4278 9.57873 22.8223 9.42129 23.2324 9.42129V18.9066Z" fill="#A21A1A"/>
<path d="M49.6027 20V8.21H53.2567C54.0607 8.21 54.7747 8.306 55.3987 8.498C56.0227 8.678 56.5087 8.984 56.8567 9.416C57.2167 9.836 57.3967 10.4 57.3967 11.108C57.3967 11.672 57.2527 12.194 56.9647 12.674C56.6767 13.154 56.2627 13.484 55.7227 13.664V13.736C56.4067 13.868 56.9647 14.168 57.3967 14.636C57.8287 15.104 58.0447 15.74 58.0447 16.544C58.0447 17.324 57.8527 17.972 57.4687 18.488C57.0847 18.992 56.5507 19.37 55.8667 19.622C55.1947 19.874 54.4207 20 53.5447 20H49.6027ZM51.4387 18.56H53.3287C54.2647 18.56 54.9847 18.392 55.4887 18.056C55.9927 17.708 56.2447 17.174 56.2447 16.454C56.2447 15.782 55.9927 15.296 55.4887 14.996C54.9967 14.684 54.2767 14.528 53.3287 14.528H51.4387V18.56ZM51.4387 13.142H53.0407C53.9407 13.142 54.5887 12.98 54.9847 12.656C55.3927 12.332 55.5967 11.9 55.5967 11.36C55.5967 10.736 55.3867 10.298 54.9667 10.046C54.5467 9.782 53.9227 9.65 53.0947 9.65H51.4387V13.142ZM62.1986 20.216C61.6946 20.216 61.2446 20.114 60.8486 19.91C60.4646 19.694 60.1586 19.394 59.9306 19.01C59.7146 18.626 59.6066 18.176 59.6066 17.66C59.6066 16.712 60.0266 15.98 60.8666 15.464C61.7066 14.948 63.0446 14.594 64.8806 14.402C64.8806 14.054 64.8266 13.736 64.7186 13.448C64.6226 13.148 64.4486 12.908 64.1966 12.728C63.9566 12.548 63.6206 12.458 63.1886 12.458C62.7206 12.458 62.2706 12.548 61.8386 12.728C61.4186 12.908 61.0226 13.118 60.6506 13.358L59.9666 12.134C60.2666 11.942 60.6026 11.756 60.9746 11.576C61.3466 11.396 61.7426 11.252 62.1626 11.144C62.5946 11.036 63.0446 10.982 63.5126 10.982C64.2446 10.982 64.8446 11.132 65.3126 11.432C65.7806 11.72 66.1286 12.146 66.3566 12.71C66.5846 13.262 66.6986 13.928 66.6986 14.708V20H65.2046L65.0606 18.992H65.0066C64.6106 19.328 64.1786 19.616 63.7106 19.856C63.2426 20.096 62.7386 20.216 62.1986 20.216ZM62.7566 18.776C63.1526 18.776 63.5126 18.686 63.8366 18.506C64.1726 18.314 64.5206 18.056 64.8806 17.732V15.554C64.0046 15.662 63.3086 15.806 62.7926 15.986C62.2886 16.166 61.9226 16.388 61.6946 16.652C61.4786 16.904 61.3706 17.198 61.3706 17.534C61.3706 17.966 61.5026 18.284 61.7666 18.488C62.0426 18.68 62.3726 18.776 62.7566 18.776ZM69.304 20V11.198H71.122V20H69.304ZM70.222 9.542C69.91 9.542 69.646 9.44 69.43 9.236C69.214 9.02 69.106 8.756 69.106 8.444C69.106 8.12 69.214 7.862 69.43 7.67C69.646 7.466 69.91 7.364 70.222 7.364C70.558 7.364 70.828 7.466 71.032 7.67C71.236 7.862 71.338 8.12 71.338 8.444C71.338 8.756 71.236 9.02 71.032 9.236C70.828 9.44 70.558 9.542 70.222 9.542ZM72.7579 20L75.5839 15.41L72.9559 11.198H74.9179L75.9799 12.98C76.1119 13.22 76.2499 13.466 76.3939 13.718C76.5379 13.958 76.6759 14.204 76.8079 14.456H76.8799C77.0119 14.204 77.1379 13.958 77.2579 13.718C77.3779 13.466 77.4979 13.22 77.6179 12.98L78.5539 11.198H80.4439L77.8159 15.608L80.6419 20H78.6799L77.5099 18.128C77.3659 17.864 77.2159 17.6 77.0599 17.336C76.9039 17.072 76.7479 16.814 76.5919 16.562H76.5199C76.3879 16.814 76.2499 17.072 76.1059 17.336C75.9739 17.588 75.8359 17.852 75.6919 18.128L74.6479 20H72.7579ZM85.5971 20.216C84.8051 20.216 84.0851 20.036 83.4371 19.676C82.7891 19.304 82.2731 18.776 81.8891 18.092C81.5051 17.396 81.3131 16.568 81.3131 15.608C81.3131 14.648 81.5051 13.826 81.8891 13.142C82.2731 12.446 82.7711 11.912 83.3831 11.54C83.9951 11.168 84.6431 10.982 85.3271 10.982C86.1071 10.982 86.7611 11.156 87.2891 11.504C87.8291 11.852 88.2311 12.338 88.4951 12.962C88.7711 13.586 88.9091 14.312 88.9091 15.14C88.9091 15.308 88.9031 15.482 88.8911 15.662C88.8791 15.83 88.8611 15.968 88.8371 16.076H82.7351L82.7171 14.816H87.3251C87.3251 14.048 87.1571 13.454 86.8211 13.034C86.4971 12.614 86.0111 12.404 85.3631 12.404C84.9791 12.404 84.6071 12.512 84.2471 12.728C83.8871 12.944 83.5871 13.292 83.3471 13.772C83.1191 14.24 83.0051 14.852 83.0051 15.608C83.0051 16.34 83.1371 16.94 83.4011 17.408C83.6651 17.876 84.0131 18.224 84.4451 18.452C84.8771 18.68 85.3391 18.794 85.8311 18.794C86.2391 18.794 86.6111 18.734 86.9471 18.614C87.2831 18.494 87.6131 18.332 87.9371 18.128L88.5671 19.28C88.1711 19.544 87.7211 19.766 87.2171 19.946C86.7131 20.126 86.1731 20.216 85.5971 20.216ZM98.0917 20.216C97.3717 20.216 96.6937 20.036 96.0577 19.676C95.4337 19.304 94.9237 18.776 94.5277 18.092C94.1437 17.408 93.9517 16.58 93.9517 15.608C93.9517 14.624 94.1437 13.79 94.5277 13.106C94.9237 12.41 95.4337 11.882 96.0577 11.522C96.6937 11.162 97.3717 10.982 98.0917 10.982C98.8237 10.982 99.5017 11.162 100.126 11.522C100.75 11.882 101.254 12.41 101.638 13.106C102.034 13.79 102.232 14.624 102.232 15.608C102.232 16.58 102.034 17.408 101.638 18.092C101.254 18.776 100.75 19.304 100.126 19.676C99.5017 20.036 98.8237 20.216 98.0917 20.216ZM98.0917 18.722C98.5597 18.722 98.9617 18.596 99.2977 18.344C99.6457 18.08 99.9097 17.714 100.09 17.246C100.27 16.778 100.36 16.232 100.36 15.608C100.36 14.984 100.27 14.438 100.09 13.97C99.9097 13.49 99.6457 13.124 99.2977 12.872C98.9617 12.608 98.5597 12.476 98.0917 12.476C97.6357 12.476 97.2337 12.608 96.8857 12.872C96.5497 13.124 96.2857 13.49 96.0937 13.97C95.9137 14.438 95.8237 14.984 95.8237 15.608C95.8237 16.232 95.9137 16.778 96.0937 17.246C96.2857 17.714 96.5497 18.08 96.8857 18.344C97.2337 18.596 97.6357 18.722 98.0917 18.722ZM110.081 20.216C109.577 20.216 109.127 20.114 108.731 19.91C108.347 19.694 108.041 19.394 107.813 19.01C107.597 18.626 107.489 18.176 107.489 17.66C107.489 16.712 107.909 15.98 108.749 15.464C109.589 14.948 110.927 14.594 112.763 14.402C112.763 14.054 112.709 13.736 112.601 13.448C112.505 13.148 112.331 12.908 112.079 12.728C111.839 12.548 111.503 12.458 111.071 12.458C110.603 12.458 110.153 12.548 109.721 12.728C109.301 12.908 108.905 13.118 108.533 13.358L107.849 12.134C108.149 11.942 108.485 11.756 108.857 11.576C109.229 11.396 109.625 11.252 110.045 11.144C110.477 11.036 110.927 10.982 111.395 10.982C112.127 10.982 112.727 11.132 113.195 11.432C113.663 11.72 114.011 12.146 114.239 12.71C114.467 13.262 114.581 13.928 114.581 14.708V20H113.087L112.943 18.992H112.889C112.493 19.328 112.061 19.616 111.593 19.856C111.125 20.096 110.621 20.216 110.081 20.216ZM110.639 18.776C111.035 18.776 111.395 18.686 111.719 18.506C112.055 18.314 112.403 18.056 112.763 17.732V15.554C111.887 15.662 111.191 15.806 110.675 15.986C110.171 16.166 109.805 16.388 109.577 16.652C109.361 16.904 109.253 17.198 109.253 17.534C109.253 17.966 109.385 18.284 109.649 18.488C109.925 18.68 110.255 18.776 110.639 18.776ZM117.187 23.582V11.198H118.681L118.825 12.17H118.879C119.263 11.834 119.689 11.552 120.157 11.324C120.625 11.096 121.105 10.982 121.597 10.982C122.341 10.982 122.971 11.168 123.487 11.54C124.003 11.9 124.393 12.416 124.657 13.088C124.933 13.76 125.071 14.552 125.071 15.464C125.071 16.46 124.891 17.312 124.531 18.02C124.183 18.728 123.721 19.274 123.145 19.658C122.569 20.03 121.951 20.216 121.291 20.216C120.907 20.216 120.517 20.132 120.121 19.964C119.725 19.784 119.335 19.538 118.951 19.226L119.005 20.72V23.582H117.187ZM120.931 18.704C121.363 18.704 121.747 18.578 122.083 18.326C122.431 18.074 122.701 17.708 122.893 17.228C123.097 16.748 123.199 16.166 123.199 15.482C123.199 14.87 123.127 14.342 122.983 13.898C122.839 13.442 122.611 13.094 122.299 12.854C121.999 12.614 121.603 12.494 121.111 12.494C120.775 12.494 120.433 12.584 120.085 12.764C119.749 12.932 119.389 13.202 119.005 13.574V17.894C119.365 18.182 119.707 18.392 120.031 18.524C120.367 18.644 120.667 18.704 120.931 18.704ZM127.259 23.582V11.198H128.753L128.897 12.17H128.951C129.335 11.834 129.761 11.552 130.229 11.324C130.697 11.096 131.177 10.982 131.669 10.982C132.413 10.982 133.043 11.168 133.559 11.54C134.075 11.9 134.465 12.416 134.729 13.088C135.005 13.76 135.143 14.552 135.143 15.464C135.143 16.46 134.963 17.312 134.603 18.02C134.255 18.728 133.793 19.274 133.217 19.658C132.641 20.03 132.023 20.216 131.363 20.216C130.979 20.216 130.589 20.132 130.193 19.964C129.797 19.784 129.407 19.538 129.023 19.226L129.077 20.72V23.582H127.259ZM131.003 18.704C131.435 18.704 131.819 18.578 132.155 18.326C132.503 18.074 132.773 17.708 132.965 17.228C133.169 16.748 133.271 16.166 133.271 15.482C133.271 14.87 133.199 14.342 133.055 13.898C132.911 13.442 132.683 13.094 132.371 12.854C132.071 12.614 131.675 12.494 131.183 12.494C130.847 12.494 130.505 12.584 130.157 12.764C129.821 12.932 129.461 13.202 129.077 13.574V17.894C129.437 18.182 129.779 18.392 130.103 18.524C130.439 18.644 130.739 18.704 131.003 18.704Z" fill="#FFF5EA"/>
<defs>
<linearGradient id="paint0_linear_3248_5883" x1="26.4801" y1="3.92227" x2="1.83928" y2="28.5631" gradientUnits="userSpaceOnUse">
<stop offset="0.121302" stop-color="#FFECC3"/>
<stop offset="0.585799" stop-color="#FFD6AD"/>
<stop offset="1" stop-color="#FFA76E"/>
</linearGradient>
</defs>
</svg>
