<svg width="148" height="78" viewBox="0 0 148 78" fill="none" xmlns="http://www.w3.org/2000/svg">
<path d="M34.4929 0.374023L30.5488 0.381264V0.699879H30.8216C31.7774 0.699879 32.0888 1.19469 32.1612 1.56399C32.3422 2.4619 31.6833 4.05255 31.6833 4.05255L42.4002 34.7552C42.6971 35.851 42.2723 36.4279 41.6689 36.4279L40.7396 36.4255L40.7372 36.7514H48.5408V36.4255L47.8118 36.4279C47.0684 36.4279 46.6436 35.53 46.3105 34.6031L34.4929 0.374023Z" fill="#FFD6AD"/>
<path d="M20.7089 34.5506L20.3854 34.4951C19.823 36.0303 19.5044 36.4792 18.0369 36.4792L18.0417 36.8051H21.9857V36.4792H21.2519C20.0137 36.4792 20.7089 34.5506 20.7089 34.5506Z" fill="#FFD6AD"/>
<path d="M71.5348 40.5607C56.8762 40.6814 56.7869 55.3834 56.7821 59.1802C56.7869 62.2867 56.741 72.6536 64.8029 76.3973C63.5984 76.897 62.4302 76.9959 61.1292 76.9959C60.0454 76.9959 59.1258 76.7135 58.1434 76.308C53.3739 74.3312 53.5646 70.1506 50.0815 65.2073C48.3992 62.8201 45.942 61.4684 43.5162 60.7202H43.5186C43.3279 60.6695 43.1928 60.3267 43.5307 60.2109C51.1267 60.1071 52.3818 53.9231 52.3818 50.8118C52.3818 47.6739 51.0567 40.8093 43.2845 40.8093L30.1586 40.8648C29.5552 40.8648 27.9018 40.8551 27.3394 40.8479C24.5708 40.8069 21.853 40.8551 19.7048 41.6903C17.6579 40.6403 15.9876 40.5293 14.1049 40.5293C-0.565765 40.5293 -0.00095529 57.9613 0.00387217 60.1095C0.00387217 60.1143 -0.565764 77.7128 14.257 77.7128C15.1283 77.7128 18.1093 77.749 20.4771 76.6677C22.676 75.6636 24.566 73.7302 25.4398 71.1668L25.1284 71.0678C24.2764 73.4429 22.6833 75.2194 20.3178 76.3466C18.02 77.4401 15.15 77.3821 14.2956 77.3821C10.8898 77.3821 4.79754 73.1026 4.76617 60.1071C4.79996 46.245 9.72879 40.86 14.6287 40.8551C16.4897 40.8527 18.0827 41.2703 19.3403 41.8617C18.37 42.301 17.4962 42.9189 16.8541 43.882C16.0166 45.1347 15.8283 46.4791 16.4969 47.7777C16.9314 48.6201 17.9427 50.1215 21.0733 50.177C21.0733 50.177 24.9039 50.1528 27.4335 50.1118C27.4335 50.1118 24.5563 46.2378 23.2795 44.6423L23.2771 44.6447C22.6061 43.7782 21.3775 42.5617 20.0837 41.8955C22.1474 41.1689 24.6988 41.0965 27.3321 41.1351C27.9042 41.1424 29.6035 41.152 30.1852 41.152H30.6776C31.0083 41.1786 31.7975 41.4248 31.7975 42.7572V75.6298C31.7975 76.8584 31.0493 76.9646 30.7379 76.9887H30.1031V77.317H37.0522V76.9887H36.5671C36.2364 76.9622 35.5002 76.757 35.5002 75.4246C35.5002 75.3112 35.4954 75.2194 35.4881 75.147V60.2109H40.2021C43.8855 60.2109 45.1768 65.9121 47.1827 68.8062C49.1909 71.7002 53.2846 77.3701 61.023 77.3701C62.6329 77.3701 63.6829 77.0901 65.0853 76.5663C66.7532 77.2397 69.1597 77.7756 71.53 77.7949C86.1885 77.6742 86.2779 62.9722 86.2827 59.1754C86.2803 55.3858 86.1934 40.6814 71.5348 40.5607ZM23.294 45.183C23.9795 46.0398 24.3584 46.8002 24.3584 47.9708C24.3584 48.8953 23.796 49.8511 22.7098 49.8511H20.9937C18.7537 49.7884 17.5276 49.0111 16.8083 47.6667C16.1879 46.5057 16.3014 45.183 17.0955 44.1233C17.8051 43.1723 18.6886 42.4772 19.712 42.0524C21.0878 42.7741 22.2343 43.8385 23.294 45.183ZM35.493 59.8874V42.5134C35.493 41.4875 36.1229 41.2655 36.4536 41.21L42.4831 41.1762C43.7117 41.1762 44.8341 42.1851 45.0586 42.3686C46.6685 43.6502 48.3461 46.1702 48.3606 50.8118C48.3388 58.5526 43.6852 59.8536 42.4373 59.8874H35.493ZM71.5348 77.5125C69.6135 77.4835 67.837 76.9308 66.3308 75.666C67.9094 74.3698 70.3279 71.1402 70.3279 66.2017L66.7822 66.1414L66.787 66.5107C68.3004 66.5445 69.7945 66.4745 69.4397 69.3227C69.1259 71.845 67.6487 74.2708 66.0918 75.4584C63.3354 72.9554 61.5468 67.9372 61.5468 59.1802C61.5468 45.4847 65.918 40.9324 71.5348 40.8479C77.1515 40.9324 81.5228 45.4726 81.5228 59.1802C81.5228 72.8878 77.1491 77.428 71.5348 77.5125Z" fill="#FFD6AD"/>
<path d="M50.3708 0.46582V0.794088H51.0612C51.3774 0.830294 52.0749 1.03788 52.0749 2.05647V35.1922C52.0749 36.3604 51.3267 36.5246 51.0153 36.5487H50.3829V36.877H57.332V36.5487H56.8493C56.5186 36.5221 55.7824 36.329 55.7824 34.9846C55.7824 34.8711 55.7704 0.794088 55.7704 0.794088H67.7159C70.5593 0.794088 72.7968 2.3437 72.7968 5.51776H73.1975V0.4972L50.3708 0.46582Z" fill="#FFD6AD"/>
<path d="M81.0546 2.14581C81.0546 1.11997 81.6845 0.897907 82.0152 0.842392L88.0447 0.808599C88.1847 0.808599 88.3006 0.926872 88.3006 1.06687C88.3006 1.20687 88.1871 1.32997 88.0447 1.32997H88.0399C85.1193 1.57858 82.8552 2.42821 81.0546 3.94162V2.14581ZM87.9965 19.5223H81.0521V4.32058C83.0942 2.51994 85.7638 1.5472 89.3819 1.5472C89.9009 1.5472 90.2871 1.73306 90.6178 2.0034C92.2277 3.28509 93.9053 5.80502 93.9197 10.4466C93.898 18.1875 89.2444 19.4885 87.9965 19.5223ZM88.8895 20.104C88.8895 19.964 89.003 19.8481 89.1454 19.8481C96.6473 19.6864 97.9434 13.5483 97.9434 10.4515C97.9434 7.31361 96.6183 0.448954 88.8461 0.448954L87.5741 0.482746V0.48516L75.7588 0.506883V0.835151H76.244C76.5747 0.861702 77.364 1.06687 77.364 2.39925V8.73288C75.2302 11.948 72.2372 16.9734 66.5504 16.9734H63.9026V16.9951C63.4947 16.9951 62.8888 16.9927 62.1164 16.9927C60.0696 16.9927 57.8707 16.0465 57.8707 14.0021L57.8731 12.7179H57.5472V17.1158V21.5136H57.8731L57.8707 20.2295C57.8707 18.185 60.0696 17.2389 62.1164 17.2389C62.8888 17.2389 63.4947 17.2389 63.9026 17.2365V17.2582H66.5504C72.1769 17.2582 75.2109 12.4331 77.364 9.247V35.2694C77.364 36.498 76.6157 36.6042 76.3043 36.6284H75.6695V36.9566H82.6187V36.6284H82.1335C81.8028 36.6018 81.0666 36.3966 81.0666 35.0643C81.0666 34.9508 81.0618 34.8591 81.0546 34.7867V19.8505H85.7686C89.4519 19.8505 90.7433 25.5518 92.7491 28.4458C94.7573 31.3399 98.851 37.0097 106.589 37.0097C108.361 37.0097 109.99 36.7249 111.482 36.206C113.119 36.8432 115.057 37.2197 117.355 37.239C132.013 37.1184 132.103 22.4163 132.107 18.6195C132.103 14.8227 132.016 0.120687 117.355 0C102.696 0.120687 102.607 14.8227 102.602 18.6195C102.607 21.7477 102.667 32.2836 110.891 35.9598C109.619 36.3532 108.252 36.568 106.792 36.568C105.708 36.568 104.685 36.3508 103.705 35.9453C98.9355 33.9684 99.1262 29.7879 95.6432 24.8445C93.9632 22.4622 91.5157 21.1105 89.0923 20.3622C88.8799 20.2753 88.8895 20.1595 88.8895 20.104ZM107.367 18.6171C107.367 4.9216 111.738 0.369301 117.355 0.28482C118.798 0.306544 120.162 0.625157 121.388 1.31548C122.457 1.95512 122.694 2.23029 123.181 3.34302C126.314 12.2835 123.121 30.5096 112.469 35.3587C109.397 33.0367 107.367 27.951 107.367 18.6171ZM117.352 36.9494C115.728 36.9253 114.205 36.5246 112.865 35.6387C123.401 30.6568 126.307 13.3286 123.845 4.35196V4.35437C123.768 4.09127 124.106 3.87404 124.306 4.12024C126.187 6.96361 127.34 11.5835 127.34 18.6195C127.34 32.3271 122.969 36.8649 117.352 36.9494Z" fill="#FFD6AD"/>
<path d="M123.173 40.8096H119.005V41.1451H119.35C120.019 41.1451 120.982 41.6689 120.547 43.1533L111.621 70.3995L105.679 40.812H99.6394C97.3222 40.8554 97.0278 41.2537 97.0278 42.1516C97.0278 43.9233 100.108 45.6274 103.779 51.5024C104.457 52.7431 104.776 53.3827 104.259 54.9202L98.1863 70.7833L91.971 40.812H86.6729V41.1475H87.0856C87.8532 41.1475 88.3552 41.6351 88.5773 42.7019L95.594 77.5441H96.0092C96.0043 77.52 96.0695 77.3173 96.1805 77.0059L96.1854 77.0083L104.563 55.0385L109.229 77.5466L109.586 77.5369L121.124 42.545C121.397 41.6858 122.152 41.1451 122.712 41.1475H123.181V40.8096H123.173ZM97.3898 42.1685C97.3898 41.302 98.0174 41.2151 99.2943 41.1547C100.54 41.0968 101.843 40.9351 102.253 43.0085L103.832 51.0462C101.327 46.4746 97.3898 43.6747 97.3898 42.1685Z" fill="#FFD6AD"/>
<path d="M147.995 40.8096H146.042V70.7736L125.226 40.8096H123.274L123.269 41.0992H123.754C124.085 41.1258 124.826 41.3334 124.826 42.6681C124.826 42.9143 124.879 75.6904 124.879 75.6904C124.806 76.8369 124.131 77.0252 123.817 77.0493H123.184V77.3776H125.226V47.4087L146.042 77.3293L146.375 77.3245H146.39C146.39 77.3245 146.443 42.9361 146.443 42.6923C146.443 41.3599 147.186 41.1234 147.515 41.0968H148L147.995 40.8096Z" fill="#FFD6AD"/>
<path d="M32.5207 1.75625L20.0107 35.4902L20.3185 35.6044L32.8285 1.87039L32.5207 1.75625Z" fill="#FFD6AD"/>
<path d="M19.3355 36.3186C16.2193 34.7859 14.7035 29.9995 16.089 26.0747C16.8252 23.9869 18.271 22.3914 20.2672 21.4645C22.6133 20.3735 25.6136 20.2263 29.1811 21.0325C31.4403 21.5418 33.0648 22.1452 34.6385 22.7293C36.3306 23.3569 37.9309 23.9507 40.067 24.2958C43.7262 24.8872 47.0427 24.1076 49.4033 22.0969C51.0567 20.6897 52.0826 18.7563 52.0826 17.0498H52.4108C52.4108 18.8504 51.3391 20.8804 49.6157 22.3479C47.1803 24.4213 43.7697 25.2275 40.0139 24.6217C37.844 24.2717 36.2316 23.6731 34.5227 23.0383C32.961 22.459 31.3462 21.858 29.1087 21.3535C19.9075 19.2777 17.1559 24.04 16.398 26.1858C15.0632 29.9633 16.5042 34.5614 19.4779 36.0241L19.3355 36.3186Z" fill="#FFD6AD"/>
<path d="M28.0127 14.916C26.6489 18.1215 25.9393 20.1031 29.3789 21.1L25.7993 20.5279L28.0127 14.916Z" fill="#FFD6AD"/>
<path d="M23.4732 26.1107C24.8755 22.5601 25.0276 20.6725 22.3146 21.0563L25.8024 20.2188L23.4732 26.1107Z" fill="#FFD6AD"/>
<path d="M22.4663 20.7676C24.4576 20.3983 25.6742 19.7852 26.8327 17.2363L25.6379 20.659L22.4663 20.7676Z" fill="#FFD6AD"/>
<path d="M29.3746 21.3701C27.183 21.037 25.6285 21.0756 24.4458 24.4548L25.9013 20.2188L29.3746 21.3701Z" fill="#FFD6AD"/>
</svg>
