<svg width="32" height="32" viewBox="0 0 32 32" fill="none" xmlns="http://www.w3.org/2000/svg">
<path d="M19.8547 1.27277C20.0825 1.04303 20.0825 0.672659 19.8547 0.442925V0.442925C19.6242 0.210359 19.2482 0.210359 19.0177 0.442924L7.27266 12.2901C6.49816 13.0713 6.51913 14.3065 7.15081 15.2072C8.4879 17.1136 9.31677 19.8281 6.16165 22.9832C4.61213 24.5327 3.09707 24.6198 2.25955 24.5058C1.84697 24.4497 1.3921 24.5312 1.13492 24.8587C-0.289062 26.6719 -0.44102 29.0787 1.22804 30.7623C2.87673 32.4254 5.28458 32.3134 7.08619 30.9291C7.44881 30.6505 7.50862 30.1335 7.43279 29.6826C7.29547 28.8659 7.39861 27.4473 9.01217 25.8337C12.2472 22.5987 14.8374 23.3885 16.8071 24.8875C17.7034 25.5697 18.9741 25.6001 19.7671 24.8001L31.4732 12.9923C31.7009 12.7626 31.7009 12.3922 31.4732 12.1624V12.1624C31.2426 11.9299 30.8666 11.9299 30.6361 12.1624L23.5856 19.2742L22.4791 18.158L29.5367 11.039C29.7645 10.8093 29.7645 10.4389 29.5367 10.2092V10.2092C29.3062 9.9766 28.9302 9.9766 28.6997 10.2092L21.6492 17.3209L20.5427 16.2048L27.6003 9.08578C27.8281 8.85604 27.8281 8.48566 27.6003 8.25592V8.25592C27.3698 8.02335 26.9938 8.02335 26.7633 8.25592L19.7128 15.3677L18.6063 14.2515L25.6639 7.13253C25.8917 6.90279 25.8917 6.53241 25.6639 6.30267V6.30267C25.4334 6.0701 25.0574 6.0701 24.8269 6.30267L17.7764 13.4144L16.6699 12.2983L23.7275 5.17928C23.9553 4.94954 23.9553 4.57916 23.7275 4.34942V4.34942C23.497 4.11685 23.121 4.11685 22.8905 4.34942L15.84 11.4612L14.7335 10.345L21.7911 3.22603C22.0189 2.99629 22.0189 2.62591 21.7911 2.39617V2.39617C21.5606 2.1636 21.1846 2.1636 20.954 2.39617L13.9036 9.50793L12.7971 8.39179L19.8547 1.27277Z" fill="#FFD6AD"/>
</svg>
