<svg width="181" height="52" viewBox="0 0 181 52" fill="none" xmlns="http://www.w3.org/2000/svg">
<path d="M173.978 1.04162C177.064 1.04162 179.576 3.4905 179.576 6.5V45.5C179.576 48.5095 177.064 50.9584 173.978 50.9584H7.31095C4.22429 50.9584 1.71262 48.5095 1.71262 45.5V6.5C1.71262 3.4905 4.22429 1.04162 7.31095 1.04162H173.978ZM173.978 2.74817e-06H7.31095C3.64595 2.74817e-06 0.644287 2.92663 0.644287 6.5V45.5C0.644287 49.0734 3.64595 52 7.31095 52H173.978C177.643 52 180.644 49.0734 180.644 45.5V6.5C180.644 2.92663 177.643 2.74817e-06 173.978 2.74817e-06Z" fill="#A6A6A6"/>
<path d="M14.5575 9.80044C14.1659 10.2002 13.9392 10.8226 13.9392 11.6286V40.3781C13.9392 41.1841 14.1659 41.8064 14.5575 42.2062L14.6542 42.2939L31.1775 26.1902V25.8099L14.6542 9.7062L14.5575 9.80044Z" fill="url(#paint0_linear_3248_5925)"/>
<path d="M36.6792 31.5615L31.1775 26.1909V25.8106L36.6858 20.44L36.8092 20.5099L43.3325 24.1288C45.1942 25.1558 45.1942 26.8458 43.3325 27.8793L36.8092 31.4916L36.6792 31.5615Z" fill="url(#paint1_linear_3248_5925)"/>
<path d="M36.8093 31.4912L31.1776 26.0003L14.5576 42.2065C15.176 42.8402 16.1843 42.9166 17.3309 42.2828L36.8093 31.4912Z" fill="url(#paint2_linear_3248_5925)"/>
<path d="M36.8093 20.5091L17.3309 9.71751C16.1843 9.09025 15.176 9.16663 14.5576 9.80038L31.1776 26L36.8093 20.5091Z" fill="url(#paint3_linear_3248_5925)"/>
<path d="M91.4909 28.2783C88.3592 28.2783 85.8009 30.602 85.8009 33.8082C85.8009 36.9883 88.3592 39.3364 91.4909 39.3364C94.6292 39.3364 97.1876 36.9883 97.1876 33.8082C97.1876 30.602 94.6292 28.2783 91.4909 28.2783ZM91.4909 37.1589C89.7726 37.1589 88.2942 35.776 88.2942 33.8082C88.2942 31.8143 89.7726 30.4558 91.4909 30.4558C93.2092 30.4558 94.6942 31.8143 94.6942 33.8082C94.6942 35.776 93.2092 37.1589 91.4909 37.1589ZM79.0759 28.2783C75.9376 28.2783 73.3859 30.602 73.3859 33.8082C73.3859 36.9883 75.9376 39.3364 79.0759 39.3364C82.2126 39.3364 84.7659 36.9883 84.7659 33.8082C84.7659 30.602 82.2126 28.2783 79.0759 28.2783ZM79.0759 37.1589C77.3559 37.1589 75.8726 35.776 75.8726 33.8082C75.8726 31.8143 77.3559 30.4558 79.0759 30.4558C80.7942 30.4558 82.2726 31.8143 82.2726 33.8082C82.2726 35.776 80.7942 37.1589 79.0759 37.1589ZM64.3026 29.9732V32.3229H70.0576C69.8892 33.6359 69.4393 34.6012 68.7492 35.2739C67.9093 36.0864 66.6009 36.9883 64.3026 36.9883C60.7609 36.9883 57.9876 34.2014 57.9876 30.7483C57.9876 27.2952 60.7609 24.5083 64.3026 24.5083C66.2176 24.5083 67.6109 25.2379 68.6393 26.1837L70.3376 24.5278C68.8993 23.1888 66.9859 22.1602 64.3026 22.1602C59.4459 22.1602 55.3643 26.013 55.3643 30.7483C55.3643 35.4835 59.4459 39.3364 64.3026 39.3364C66.9276 39.3364 68.8993 38.4979 70.4492 36.9249C72.0376 35.3763 72.5326 33.1988 72.5326 31.4405C72.5326 30.8945 72.4859 30.3924 72.4026 29.9732H64.3026ZM124.713 31.7948C124.244 30.5582 122.799 28.2783 119.856 28.2783C116.939 28.2783 114.511 30.5192 114.511 33.8082C114.511 36.9054 116.914 39.3364 120.136 39.3364C122.741 39.3364 124.244 37.7878 124.863 36.8859L122.929 35.6298C122.284 36.5495 121.406 37.1589 120.136 37.1589C118.874 37.1589 117.969 36.595 117.389 35.4835L124.974 32.4237L124.713 31.7948ZM116.979 33.6359C116.914 31.5039 118.678 30.4119 119.941 30.4119C120.931 30.4119 121.771 30.8945 122.051 31.5852L116.979 33.6359ZM110.814 39H113.308V22.75H110.814V39ZM106.731 29.51H106.648C106.088 28.8633 105.019 28.2783 103.666 28.2783C100.826 28.2783 98.2292 30.7093 98.2292 33.826C98.2292 36.9249 100.826 39.3364 103.666 39.3364C105.019 39.3364 106.088 38.7465 106.648 38.0803H106.731V38.8733C106.731 40.9874 105.573 42.1233 103.704 42.1233C102.181 42.1233 101.236 41.0508 100.846 40.1489L98.6776 41.0313C99.3026 42.497 100.958 44.3008 103.704 44.3008C106.628 44.3008 109.094 42.6238 109.094 38.5434V28.6147H106.731V29.51ZM103.879 37.1589C102.161 37.1589 100.723 35.7565 100.723 33.826C100.723 31.8777 102.161 30.4558 103.879 30.4558C105.573 30.4558 106.908 31.8777 106.908 33.826C106.908 35.7565 105.573 37.1589 103.879 37.1589ZM136.386 22.75H130.423V39H132.909V32.8429H136.386C139.148 32.8429 141.856 30.8945 141.856 27.7957C141.856 24.6984 139.141 22.75 136.386 22.75ZM136.451 30.5825H132.909V25.0104H136.451C138.308 25.0104 139.368 26.5135 139.368 27.7957C139.368 29.0534 138.308 30.5825 136.451 30.5825ZM151.823 28.2474C150.026 28.2474 148.158 29.0209 147.389 30.7353L149.596 31.6372C150.071 30.7353 150.944 30.4428 151.868 30.4428C153.158 30.4428 154.466 31.1984 154.486 32.5325V32.7032C154.036 32.4497 153.073 32.0743 151.888 32.0743C149.511 32.0743 147.089 33.3499 147.089 35.7305C147.089 37.908 149.036 39.3104 151.224 39.3104C152.898 39.3104 153.821 38.5743 154.401 37.7179H154.486V38.974H156.888V32.7405C156.888 29.8594 154.681 28.2474 151.823 28.2474ZM151.523 37.1524C150.709 37.1524 149.576 36.7592 149.576 35.776C149.576 34.5183 150.989 34.0357 152.213 34.0357C153.308 34.0357 153.821 34.2713 154.486 34.5817C154.291 36.0864 152.963 37.1524 151.523 37.1524ZM165.638 28.6033L162.779 35.6477H162.694L159.739 28.6033H157.058L161.498 38.4475L158.964 43.9254H161.563L168.404 28.6033H165.638ZM143.223 39H145.716V22.75H143.223V39Z" fill="white"/>
<path d="M56.6541 18V10.2979H58.781C61.4952 10.2979 62.8523 11.5493 62.8523 14.0522C62.8523 15.241 62.4745 16.1971 61.719 16.9204C60.967 17.6401 59.9591 18 58.6951 18H56.6541ZM57.5564 11.1143V17.1836H58.7058C59.7156 17.1836 60.5015 16.9132 61.0637 16.3726C61.6259 15.8319 61.907 15.0656 61.907 14.0737C61.907 12.1007 60.8578 11.1143 58.7595 11.1143H57.5564Z" fill="white"/>
<path d="M65.2693 18H64.3669V10.2979H65.2693V18Z" fill="white"/>
<path d="M66.9397 17.6885V16.625C67.0614 16.7324 67.2065 16.8291 67.3748 16.915C67.5466 17.001 67.7257 17.0744 67.9119 17.1353C68.1016 17.1925 68.2914 17.2373 68.4812 17.2695C68.671 17.3018 68.8464 17.3179 69.0076 17.3179C69.5626 17.3179 69.9762 17.2158 70.2483 17.0117C70.524 16.804 70.6619 16.5068 70.6619 16.1201C70.6619 15.9124 70.6153 15.7316 70.5222 15.5776C70.4327 15.4237 70.3074 15.284 70.1462 15.1587C69.9851 15.0298 69.7935 14.908 69.5715 14.7935C69.3531 14.6753 69.1168 14.5518 68.8625 14.4229C68.594 14.2868 68.3433 14.1489 68.1106 14.0093C67.8778 13.8696 67.6755 13.7157 67.5037 13.5474C67.3318 13.3791 67.1957 13.1893 67.0955 12.978C66.9988 12.7632 66.9504 12.5125 66.9504 12.2261C66.9504 11.8752 67.0274 11.5708 67.1814 11.313C67.3354 11.0516 67.5377 10.8368 67.7883 10.6685C68.039 10.5002 68.3236 10.3748 68.6423 10.2925C68.9646 10.2101 69.2922 10.1689 69.6252 10.1689C70.3844 10.1689 70.9376 10.2603 71.2849 10.4429V11.458C70.8302 11.1429 70.2465 10.9854 69.5339 10.9854C69.337 10.9854 69.1401 11.0068 68.9431 11.0498C68.7462 11.0892 68.5707 11.1554 68.4167 11.2485C68.2628 11.3416 68.1375 11.4616 68.0408 11.6084C67.9441 11.7552 67.8958 11.9342 67.8958 12.1455C67.8958 12.3424 67.9316 12.5125 68.0032 12.6558C68.0784 12.799 68.1876 12.9297 68.3308 13.0479C68.474 13.166 68.6477 13.2806 68.8518 13.3916C69.0595 13.5026 69.2976 13.6243 69.5662 13.7568C69.8419 13.8929 70.1033 14.0361 70.3503 14.1865C70.5974 14.3369 70.814 14.5034 71.0002 14.686C71.1864 14.8687 71.3333 15.071 71.4407 15.293C71.5517 15.515 71.6072 15.7692 71.6072 16.0557C71.6072 16.4352 71.532 16.7575 71.3816 17.0225C71.2348 17.2839 71.0343 17.4969 70.78 17.6616C70.5294 17.8263 70.2393 17.9445 69.9099 18.0161C69.5805 18.0913 69.2332 18.1289 68.8679 18.1289C68.7462 18.1289 68.5958 18.1182 68.4167 18.0967C68.2377 18.0788 68.0551 18.0501 67.8689 18.0107C67.6827 17.9749 67.5055 17.9302 67.3372 17.8765C67.1724 17.8192 67.04 17.7565 66.9397 17.6885Z" fill="white"/>
<path d="M74.0457 15.0889V18H73.1433V10.2979H75.2595C76.0831 10.2979 76.7205 10.4984 77.1716 10.8994C77.6264 11.3005 77.8538 11.8662 77.8538 12.5967C77.8538 13.3271 77.6013 13.9251 77.0964 14.3906C76.5951 14.8561 75.9166 15.0889 75.0608 15.0889H74.0457ZM74.0457 11.1143V14.2725H74.991C75.614 14.2725 76.0885 14.131 76.4143 13.8481C76.7437 13.5617 76.9084 13.1589 76.9084 12.6396C76.9084 11.6227 76.3069 11.1143 75.1038 11.1143H74.0457Z" fill="white"/>
<path d="M82.4138 18.1289C81.3217 18.1289 80.4462 17.769 79.7874 17.0493C79.1321 16.3296 78.8044 15.3932 78.8044 14.2402C78.8044 13.0013 79.1392 12.013 79.8088 11.2754C80.4784 10.5378 81.3897 10.1689 82.5427 10.1689C83.6062 10.1689 84.462 10.527 85.1101 11.2432C85.7618 11.9593 86.0876 12.8957 86.0876 14.0522C86.0876 15.3091 85.7546 16.3027 85.0886 17.0332C84.4226 17.7637 83.531 18.1289 82.4138 18.1289ZM82.4783 10.9854C81.669 10.9854 81.012 11.2772 80.5071 11.8608C80.0022 12.4445 79.7498 13.2108 79.7498 14.1597C79.7498 15.1086 79.995 15.873 80.4856 16.4531C80.9797 17.0296 81.6225 17.3179 82.4138 17.3179C83.2589 17.3179 83.9249 17.0422 84.4119 16.4907C84.8988 15.9393 85.1423 15.1676 85.1423 14.1758C85.1423 13.1589 84.906 12.3729 84.4333 11.8179C83.9607 11.2629 83.309 10.9854 82.4783 10.9854Z" fill="white"/>
<path d="M93.8113 18H92.7048L88.741 11.8608C88.6407 11.7069 88.5583 11.5457 88.4939 11.3774H88.4617C88.4903 11.5422 88.5046 11.8949 88.5046 12.4355V18H87.6023V10.2979H88.7732L92.6296 16.3403C92.7908 16.591 92.8946 16.7629 92.9412 16.856H92.9626C92.9268 16.634 92.9089 16.2562 92.9089 15.7227V10.2979H93.8113V18Z" fill="white"/>
<path d="M96.7332 18H95.8308V10.2979H96.7332V18ZM97.5549 7.82715L96.1477 9.58887H95.4656L96.6633 7.82715H97.5549Z" fill="white"/>
<path d="M104.489 10.2979L101.637 18H100.643L97.8503 10.2979H98.8547L100.987 16.4048C101.055 16.6017 101.107 16.8291 101.143 17.0869H101.164C101.193 16.8721 101.252 16.6411 101.342 16.394L103.517 10.2979H104.489Z" fill="white"/>
<path d="M109.677 18H105.595V10.2979H109.506V11.1143H106.498V13.6763H109.28V14.4873H106.498V17.1836H109.677V18Z" fill="white"/>
<path d="M115.156 18H111.16V10.2979H112.062V17.1836H115.156V18Z" fill="white"/>
<path d="M125.565 18H124.459L120.495 11.8608C120.395 11.7069 120.312 11.5457 120.248 11.3774H120.216C120.244 11.5422 120.259 11.8949 120.259 12.4355V18H119.356V10.2979H120.527L124.384 16.3403C124.545 16.591 124.649 16.7629 124.695 16.856H124.717C124.681 16.634 124.663 16.2562 124.663 15.7227V10.2979H125.565V18Z" fill="white"/>
<path d="M130.689 18.1289C129.597 18.1289 128.722 17.769 128.063 17.0493C127.407 16.3296 127.08 15.3932 127.08 14.2402C127.08 13.0013 127.415 12.013 128.084 11.2754C128.754 10.5378 129.665 10.1689 130.818 10.1689C131.882 10.1689 132.737 10.527 133.385 11.2432C134.037 11.9593 134.363 12.8957 134.363 14.0522C134.363 15.3091 134.03 16.3027 133.364 17.0332C132.698 17.7637 131.806 18.1289 130.689 18.1289ZM130.754 10.9854C129.944 10.9854 129.287 11.2772 128.782 11.8608C128.278 12.4445 128.025 13.2108 128.025 14.1597C128.025 15.1086 128.27 15.873 128.761 16.4531C129.255 17.0296 129.898 17.3179 130.689 17.3179C131.534 17.3179 132.2 17.0422 132.687 16.4907C133.174 15.9393 133.418 15.1676 133.418 14.1758C133.418 13.1589 133.181 12.3729 132.709 11.8179C132.236 11.2629 131.584 10.9854 130.754 10.9854Z" fill="white"/>
<defs>
<linearGradient id="paint0_linear_3248_5925" x1="29.7105" y1="40.6775" x2="7.90034" y2="18.3081" gradientUnits="userSpaceOnUse">
<stop stop-color="#00A0FF"/>
<stop offset="0.0066" stop-color="#00A1FF"/>
<stop offset="0.2601" stop-color="#00BEFF"/>
<stop offset="0.5122" stop-color="#00D2FF"/>
<stop offset="0.7604" stop-color="#00DFFF"/>
<stop offset="1" stop-color="#00E3FF"/>
</linearGradient>
<linearGradient id="paint1_linear_3248_5925" x1="45.7567" y1="25.999" x2="13.4942" y2="25.999" gradientUnits="userSpaceOnUse">
<stop stop-color="#FFE000"/>
<stop offset="0.4087" stop-color="#FFBD00"/>
<stop offset="0.7754" stop-color="#FFA500"/>
<stop offset="1" stop-color="#FF9C00"/>
</linearGradient>
<linearGradient id="paint2_linear_3248_5925" x1="33.7469" y1="23.0154" x2="4.17064" y2="-7.31927" gradientUnits="userSpaceOnUse">
<stop stop-color="#FF3A44"/>
<stop offset="1" stop-color="#C31162"/>
</linearGradient>
<linearGradient id="paint3_linear_3248_5925" x1="10.374" y1="51.7709" x2="23.5812" y2="38.2253" gradientUnits="userSpaceOnUse">
<stop stop-color="#32A071"/>
<stop offset="0.0685" stop-color="#2DA771"/>
<stop offset="0.4762" stop-color="#15CF74"/>
<stop offset="0.8009" stop-color="#06E775"/>
<stop offset="1" stop-color="#00F076"/>
</linearGradient>
</defs>
</svg>
