<svg width="24" height="24" viewBox="0 0 24 24" fill="none" xmlns="http://www.w3.org/2000/svg">
<path d="M8.00095 11.9933C8.00095 9.78545 9.79134 7.9952 12.0005 7.9952C14.2096 7.9952 16.001 9.78545 16.001 11.9933C16.001 14.2011 14.2096 15.9914 12.0005 15.9914C9.79134 15.9914 8.00095 14.2011 8.00095 11.9933ZM5.83839 11.9933C5.83839 15.3946 8.59715 18.1517 12.0005 18.1517C15.4038 18.1517 18.1626 15.3946 18.1626 11.9933C18.1626 8.59201 15.4038 5.83487 12.0005 5.83487C8.59715 5.83487 5.83839 8.59201 5.83839 11.9933ZM16.9665 5.59069C16.9664 5.87533 17.0507 6.15364 17.2088 6.39035C17.367 6.62711 17.5918 6.81164 17.8549 6.9207C18.118 7.02972 18.4075 7.05832 18.6869 7.00293C18.9663 6.9475 19.2229 6.81054 19.4244 6.60936C19.6259 6.40814 19.7631 6.15175 19.8188 5.87261C19.8745 5.59346 19.8461 5.30409 19.7372 5.04106C19.6283 4.77804 19.4438 4.55319 19.2071 4.39492C18.9703 4.23671 18.6919 4.15219 18.4071 4.15206H18.4065C18.0247 4.15224 17.6587 4.30387 17.3887 4.57361C17.1187 4.84335 16.9668 5.20916 16.9665 5.59069ZM7.15228 21.7555C5.98229 21.7023 5.34634 21.5075 4.92374 21.343C4.36347 21.125 3.96371 20.8653 3.54339 20.4458C3.12312 20.0264 2.86295 19.6273 2.64578 19.0673C2.48102 18.6451 2.28612 18.0094 2.23297 16.8401C2.17477 15.5759 2.16318 15.1961 2.16318 11.9934C2.16318 8.79059 2.17574 8.41191 2.23297 7.14665C2.28626 5.97737 2.48256 5.34287 2.64578 4.91943C2.86387 4.35952 3.12369 3.95998 3.54339 3.53992C3.96314 3.11987 4.36251 2.85987 4.92374 2.64284C5.34616 2.47821 5.98229 2.28345 7.15228 2.23025C8.41723 2.17214 8.79723 2.1605 12.0005 2.1605C15.2037 2.1605 15.5841 2.17311 16.8501 2.23025C18.0201 2.28353 18.655 2.47975 19.0786 2.64284C19.6389 2.85987 20.0387 3.12048 20.459 3.53992C20.8793 3.95941 21.1385 4.35952 21.3566 4.91943C21.5214 5.3416 21.7162 5.97737 21.7694 7.14665C21.8276 8.41191 21.8392 8.79059 21.8392 11.9934C21.8392 15.1961 21.8276 15.5749 21.7694 16.8401C21.7162 18.0094 21.5203 18.645 21.3566 19.0673C21.1385 19.6273 20.8787 20.0268 20.459 20.4458C20.0393 20.8649 19.6389 21.125 19.0786 21.343C18.6563 21.5076 18.0201 21.7024 16.8501 21.7555C15.5852 21.8137 15.2052 21.8253 12.0005 21.8253C8.79578 21.8253 8.41684 21.8137 7.15228 21.7555ZM7.05292 0.0726519C5.7754 0.130765 4.90243 0.333215 4.14007 0.62971C3.35052 0.935867 2.68215 1.34661 2.01427 2.01304C1.34635 2.67947 0.936439 3.34854 0.630062 4.13757C0.333435 4.89997 0.130853 5.77193 0.0726963 7.0487C0.0135292 8.32745 0 8.7363 0 11.9933C0 15.2503 0.0135292 15.6591 0.0726963 16.9379C0.130853 18.2147 0.333435 19.0866 0.630062 19.849C0.936439 20.6376 1.34643 21.3074 2.01427 21.9735C2.68206 22.6397 3.35052 23.0499 4.14007 23.3569C4.90388 23.6533 5.7754 23.8558 7.05292 23.9139C8.33311 23.9721 8.74153 23.9866 12.0005 23.9866C15.2594 23.9866 15.6685 23.973 16.948 23.9139C18.2257 23.8558 19.0981 23.6533 19.8609 23.3569C20.65 23.0499 21.3188 22.6399 21.9867 21.9735C22.6546 21.3071 23.0637 20.6376 23.3709 19.849C23.6675 19.0866 23.8711 18.2146 23.9283 16.9379C23.9865 15.6581 24 15.2503 24 11.9933C24 8.7363 23.9865 8.32745 23.9283 7.0487C23.8701 5.77184 23.6675 4.89949 23.3709 4.13757C23.0637 3.34902 22.6536 2.68053 21.9867 2.01304C21.3199 1.34556 20.65 0.935867 19.8619 0.62971C19.0981 0.333215 18.2256 0.129798 16.949 0.0726519C15.6695 0.0144951 15.2604 0 12.0014 0C8.74249 0 8.33311 0.0135287 7.05292 0.0726519Z" fill="#FFD6AD"/>
</svg>
