<svg width="24" height="24" viewBox="0 0 24 24" fill="none" xmlns="http://www.w3.org/2000/svg">
<path fill-rule="evenodd" clip-rule="evenodd" d="M1.77375 0C0.794441 0 0 0.770239 0 1.7192V22.2814C0 23.2304 0.794528 24 1.77375 24H22.2262C23.2059 24 24 23.2303 24 22.2811V1.7192C24 0.770239 23.2059 0 22.2262 0H1.77375ZM7.29316 9.28003V20.0849H3.70181V9.28003H7.29316ZM7.5299 5.93847C7.5299 6.97537 6.75035 7.80504 5.49823 7.80504L5.47469 7.80495C4.26934 7.80495 3.4901 6.97528 3.4901 5.93839C3.4901 4.87799 4.29289 4.07147 5.52204 4.07147C6.75035 4.07147 7.50645 4.87799 7.5299 5.93847ZM12.8721 20.0849H9.28104C9.28104 20.0849 9.32812 10.294 9.28126 9.28038H12.8724V10.8098C13.3498 10.0737 14.2042 9.02672 16.1091 9.02672C18.4719 9.02672 20.2434 10.5711 20.2434 13.8897V20.0849H16.6524V14.3052C16.6524 12.8525 16.1324 11.8618 14.8332 11.8618C13.8408 11.8618 13.2499 12.53 12.9904 13.1754C12.8956 13.4058 12.8721 13.7291 12.8721 14.0516V20.0849Z" fill="#FFD6AD"/>
</svg>
