<svg width="364" height="79" viewBox="0 0 364 79" fill="none" xmlns="http://www.w3.org/2000/svg">
<path d="M258.394 16.0413C240.013 16.1922 239.894 34.6427 239.887 39.4171C239.887 43.3192 239.838 56.334 249.951 61.0339C248.439 61.654 246.973 61.7862 245.342 61.7862C243.985 61.7862 242.828 61.4307 241.597 60.9202C235.608 58.44 235.854 53.1903 231.478 46.9857C229.365 43.9868 226.286 42.2899 223.242 41.3516C223.17 41.3324 223.108 41.2899 223.064 41.2308C223.02 41.1717 222.997 41.0995 222.999 41.0258C223.001 40.9521 223.027 40.8811 223.074 40.8244C223.121 40.7677 223.186 40.7284 223.258 40.7129C232.789 40.5807 234.361 32.8177 234.361 28.9114C234.361 24.9721 232.696 16.3555 222.948 16.3555L206.484 16.4237C205.724 16.4237 203.653 16.4237 202.946 16.403C199.475 16.3514 196.065 16.403 193.368 17.4592C190.799 16.1405 188.705 16 186.346 16C167.943 16.0021 168.653 37.8897 168.657 40.5972C168.657 40.5972 167.943 62.6977 186.54 62.6977C187.633 62.6977 191.371 62.7432 194.341 61.3873C195.792 60.7193 197.092 59.7626 198.163 58.5754C199.233 57.3883 200.05 55.9956 200.565 54.4821L200.177 54.356C199.107 57.3384 197.11 59.5706 194.142 60.9843C191.261 62.3567 187.657 62.2843 186.59 62.2843C182.317 62.2843 174.671 56.9106 174.634 40.5972C174.675 23.1946 180.859 16.4299 187.005 16.4258C189.045 16.4067 191.064 16.8386 192.918 17.6907C191.657 18.2167 190.573 19.0931 189.795 20.2163C188.742 21.7912 188.508 23.4777 189.347 25.1085C189.892 26.1667 191.162 28.0496 195.09 28.1198C195.09 28.1198 199.894 28.0909 203.068 28.0392C203.068 28.0392 199.458 23.1739 197.86 21.1732C197.017 20.084 195.476 18.5587 193.853 17.7217C196.443 16.8081 199.636 16.7193 202.94 16.7668C203.659 16.7668 205.79 16.7875 206.519 16.7875H207.139C207.552 16.8185 208.543 17.1285 208.543 18.8005V60.0749C208.543 61.6188 207.604 61.7511 207.211 61.7821H206.416V62.1955H215.135V61.7821H214.528C214.115 61.749 213.188 61.4907 213.188 59.8165C213.189 59.7006 213.185 59.5847 213.173 59.4693V40.7171H219.086C223.708 40.7171 225.325 47.8745 227.845 51.5079C230.365 55.1414 235.499 62.2554 245.209 62.2554C247.229 62.2554 248.545 61.904 250.304 61.2468C252.886 62.2351 255.623 62.7572 258.388 62.7886C276.768 62.6378 276.888 44.1873 276.894 39.4109C276.894 34.651 276.785 16.1922 258.394 16.0413ZM197.882 21.8429C198.742 22.9176 199.219 23.8725 199.219 25.342C199.219 26.5036 198.514 27.7023 197.153 27.7023H194.989C192.18 27.6238 190.64 26.6462 189.739 24.9597C189.358 24.2642 189.19 23.4724 189.253 22.6819C189.317 21.8915 189.611 21.1371 190.099 20.5119C190.936 19.3623 192.072 18.4633 193.382 17.9118C195.107 18.8171 196.546 20.1543 197.876 21.8429H197.882ZM221.897 40.3058H213.186V18.4822C213.186 17.1946 213.975 16.9135 214.392 16.8453L221.957 16.8019C223.498 16.8019 224.904 18.0689 225.187 18.3004C227.207 19.9104 229.317 23.0747 229.33 28.9011C229.295 38.6275 223.458 40.2624 221.891 40.3058H221.897ZM258.4 62.4331C255.99 62.398 253.762 61.7036 251.872 60.1162C253.85 58.4897 256.888 54.4346 256.888 48.232L252.438 48.1556V48.6206C254.338 48.664 256.211 48.5751 255.767 52.1528C255.372 55.3212 253.518 58.3532 251.566 59.8558C248.107 56.7122 245.864 50.4125 245.864 39.4171C245.864 22.2232 251.349 16.5084 258.394 16.401C265.44 16.5084 270.924 22.2067 270.924 39.4171C270.924 56.6274 265.44 62.3277 258.394 62.4331H258.4Z" fill="#A21A1A"/>
<path d="M60.125 60.0045C60.125 59.8619 60.1106 17.0788 60.1106 17.0788H75.0959C78.6626 17.0788 81.4713 19.0236 81.4713 23.0085H81.9732V16.7047L53.3407 16.6675V17.0808H54.2081C54.6067 17.1284 55.4783 17.3867 55.4783 18.6661V37.1662C55.3998 39.2578 54.1317 41.5871 52.1243 43.2964C49.9186 45.1751 47.048 46.1899 43.8283 46.2912L33.4091 16.0908H28.4526V16.4918H28.7933C29.9912 16.4918 30.3815 17.1118 30.4765 17.5789C30.6169 18.2754 30.3547 19.3006 30.1357 19.9847L23.6881 37.4039C22.3209 40.2974 20.869 41.1014 18.5869 41.5623L18.4796 41.585L18.3143 41.616H18.3288C17.3776 41.8001 16.4519 42.0977 15.5717 42.5027C14.3506 43.0597 13.2559 43.8603 12.3546 44.8553C11.4534 45.8504 10.7645 47.0191 10.3301 48.2898C8.60772 53.1675 10.4561 59.1013 14.2809 61.0875C13.9112 61.2715 13.4362 61.3459 12.7712 61.3459V61.7593H17.7278V61.3459H16.8067C15.6213 61.3459 15.8443 59.9425 16.0199 59.2791L21.1375 45.4748C22.5646 42.1038 24.4027 42.0501 26.9202 42.4262C29.1438 42.9582 31.3279 43.644 33.4566 44.4786C35.1625 45.111 36.7941 45.7187 38.7602 46.1589L43.3305 59.2584C43.7023 60.6328 43.1715 61.3583 42.4136 61.3583H41.2488V61.7716H51.038V61.3583H50.1231C49.1896 61.3583 48.6589 60.2319 48.2396 59.0682L43.9687 46.6983C47.2297 46.5785 50.1438 45.5264 52.3928 43.6105C53.7823 42.4497 54.8457 40.9467 55.4783 39.2495V60.2649C55.4783 61.7324 54.5386 61.9391 54.1483 61.9701H53.3531V62.3834H62.0726V61.9701H61.4654C61.0523 61.937 60.125 61.6952 60.125 60.0045ZM14.4936 60.9656L14.5845 60.7816C10.8506 58.9442 9.04555 53.1737 10.7184 48.4283C11.3813 46.5537 13.2607 43.0814 18.2462 42.0211C21.532 41.6078 21.3275 43.9722 19.5886 48.3807L20.0326 47.2646L15.7328 58.8616H15.7183C15.3177 59.9508 15.0141 60.606 14.4936 60.9656ZM33.6012 44.09C31.6268 43.3584 29.5885 42.5998 26.755 41.9612L26.6785 41.9447C23.9813 41.0683 23.5414 39.6422 24.066 37.5733L30.0944 21.3137L38.5991 45.7021C36.9 45.2735 35.2306 44.735 33.6012 44.09Z" fill="#A21A1A"/>
<path d="M137.367 16.041C118.986 16.1919 118.867 34.6424 118.86 39.4167C118.86 43.3437 118.943 56.5713 129.261 61.1886C127.595 61.7004 125.861 61.9575 124.119 61.9512C122.788 61.9504 121.471 61.6841 120.244 61.1679C114.255 58.6877 114.501 53.436 110.124 47.2314C108.016 44.2407 104.945 42.5438 101.907 41.6055C101.641 41.498 101.651 41.3533 101.653 41.2831C101.653 41.1977 101.686 41.1158 101.746 41.0551C101.806 40.9943 101.888 40.9597 101.973 40.9586C111.382 40.7519 113.01 33.0489 113.01 29.1612C113.01 25.2218 111.345 16.6032 101.597 16.6032L100.001 16.6445L85.1785 16.6714V17.0848H85.7857C86.1987 17.1178 87.19 17.3782 87.19 19.0503V27.0014C84.5052 31.0358 80.7589 37.3458 73.6235 37.3458H70.3088V37.3747H68.0659C65.4989 37.3747 62.7397 36.1863 62.7397 33.6193V32.0072H62.3267V43.0502H62.7397V41.4381C62.7397 38.8711 65.4989 37.6827 68.0659 37.6827H70.3088V37.7033H73.6297C80.6887 37.7033 84.4928 31.6434 87.1962 27.6462V60.3226C87.1962 61.8665 86.2566 61.9988 85.8662 62.0298H85.0711V62.4432H93.7885V62.0298H93.1813C92.7682 61.9967 91.843 61.7363 91.843 60.0642C91.843 59.9216 91.843 59.8059 91.8286 59.715V40.9648H97.7413C102.363 40.9648 103.98 48.1222 106.5 51.7556C109.02 55.3891 114.154 62.5031 123.862 62.5031C125.951 62.5141 128.026 62.1725 130 61.4924C132.055 62.2923 134.486 62.7635 137.367 62.7883C155.758 62.6374 155.867 44.1869 155.874 39.4105C155.867 34.6506 155.758 16.1919 137.367 16.041ZM91.8286 18.7279C91.8286 17.4403 92.6175 17.1592 93.0347 17.091L100.598 17.0476C100.683 17.0486 100.764 17.0833 100.824 17.144C100.884 17.2048 100.918 17.2867 100.918 17.372C100.918 17.4581 100.885 17.541 100.825 17.6029C100.765 17.6647 100.684 17.7006 100.598 17.7027C96.9338 18.0128 94.0941 19.0792 91.8348 20.9807L91.8286 18.7279ZM100.54 40.5411H91.8286V21.4664C94.3895 19.2074 97.7393 17.9838 102.279 17.9838C102.847 17.9792 103.398 18.1828 103.828 18.5563C105.849 20.1664 107.958 23.3286 107.97 29.157C107.944 38.8752 102.105 40.508 100.54 40.5514V40.5411ZM124.837 39.4064C124.837 22.2125 130.323 16.4978 137.367 16.3903C139.136 16.3889 140.876 16.8339 142.427 17.6841C143.767 18.4881 144.065 18.8333 144.678 20.2284C148.602 31.4553 144.604 54.3309 131.239 60.4239C127.386 57.5221 124.837 51.1377 124.837 39.4167V39.4064ZM137.367 62.4225C135.329 62.3915 133.42 61.8892 131.737 60.769C144.955 54.5128 148.602 32.7595 145.512 21.4871C145.489 21.4127 145.492 21.3323 145.522 21.2602C145.552 21.1882 145.607 21.1292 145.677 21.0939C145.746 21.0586 145.826 21.0492 145.902 21.0675C145.978 21.0857 146.045 21.1305 146.091 21.1936C148.449 24.7609 149.895 30.5625 149.895 39.3961C149.897 56.6292 144.414 62.3274 137.367 62.4328V62.4225Z" fill="#A21A1A"/>
<path d="M323.184 16.2871H317.955V16.7005H318.387C319.225 16.7005 320.434 17.3557 319.888 19.2199L308.691 53.4361L301.235 16.2871H293.658C290.752 16.3429 290.38 16.8452 290.38 17.9695C290.38 20.1934 294.246 22.3305 298.848 29.709C299.699 31.2674 300.087 32.0693 299.449 33.9997L291.83 53.9177L284.034 16.2871H277.386V16.7005H277.904C278.869 16.7005 279.498 17.3205 279.775 18.6516L288.577 62.3958H289.1C289.152 62.1657 289.221 61.9398 289.306 61.7199L299.814 34.1362L305.667 62.3937L306.117 62.3834L320.605 18.4614C320.946 17.3825 321.896 16.7046 322.598 16.7087H323.184V16.2871ZM290.839 17.9943C290.839 16.9051 291.626 16.7976 293.228 16.7211C294.789 16.6467 296.425 16.4442 296.946 19.0484L298.928 29.1407C295.777 23.4011 290.839 19.8834 290.839 17.9943Z" fill="#A21A1A"/>
<path d="M354.312 16.2891H351.862V53.9052L325.747 16.2891H323.298V16.6508H323.905C324.318 16.6838 325.25 16.9463 325.25 18.6204C325.25 18.9284 325.316 60.0808 325.316 60.0808C325.223 61.5276 324.376 61.757 323.984 61.788H323.188V62.2014H325.751V24.5853L351.866 62.1497H352.279H352.3C352.3 62.1497 352.364 18.9759 352.364 18.668C352.364 16.9938 353.295 16.6983 353.711 16.6652H354.318L354.312 16.2891Z" fill="#A21A1A"/>
</svg>
