<svg width="256" height="83" viewBox="0 0 256 83" fill="none" xmlns="http://www.w3.org/2000/svg">
<path d="M181.728 11.9702C168.801 12.0752 168.717 24.9205 168.712 28.2444C168.712 30.9611 168.677 40.022 175.79 43.2941C174.727 43.7258 173.696 43.8179 172.548 43.8179C171.594 43.8179 170.781 43.5704 169.915 43.215C165.703 41.4883 165.876 37.8334 162.798 33.5138C161.312 31.4259 159.146 30.2445 157.005 29.5912C156.955 29.5779 156.911 29.5483 156.88 29.5071C156.849 29.466 156.833 29.4157 156.834 29.3644C156.836 29.3131 156.855 29.2637 156.888 29.2242C156.921 29.1847 156.966 29.1574 157.017 29.1466C163.72 29.0545 164.825 23.6499 164.825 20.9304C164.825 18.1878 163.655 12.1889 156.799 12.1889L145.22 12.2364C144.685 12.2364 143.229 12.2364 142.732 12.222C140.29 12.186 137.892 12.222 135.995 12.9573C134.188 12.0393 132.716 11.9414 131.057 11.9414C118.114 11.9428 118.614 27.1811 118.616 29.066C118.616 29.066 118.114 44.4525 131.193 44.4525C131.962 44.4525 134.591 44.4841 136.679 43.5402C137.7 43.0751 138.615 42.409 139.367 41.5825C140.12 40.756 140.695 39.7864 141.057 38.7327L140.784 38.645C140.032 40.7213 138.627 42.2754 136.54 43.2596C134.514 44.215 131.979 44.1647 131.228 44.1647C128.223 44.1647 122.846 40.4235 122.82 29.066C122.849 16.9503 127.198 12.2407 131.52 12.2378C132.955 12.2246 134.375 12.5253 135.679 13.1184C134.792 13.4847 134.03 14.0949 133.483 14.8768C132.742 15.9733 132.578 17.1474 133.167 18.2827C133.551 19.0195 134.444 20.3303 137.207 20.3793C137.207 20.3793 140.585 20.3591 142.818 20.3231C142.818 20.3231 140.279 16.9359 139.154 15.543C138.562 14.7847 137.478 13.7228 136.337 13.14C138.158 12.504 140.404 12.4422 142.728 12.4752C143.233 12.4752 144.732 12.4896 145.245 12.4896H145.68C145.971 12.5112 146.668 12.7271 146.668 13.8911V42.6265C146.668 43.7013 146.007 43.7934 145.731 43.815H145.172V44.1028H151.304V43.815H150.877C150.587 43.792 149.935 43.6121 149.935 42.4466C149.936 42.3659 149.932 42.2852 149.925 42.2049V29.1495H154.083C157.334 29.1495 158.471 34.1325 160.243 36.6621C162.015 39.1917 165.626 44.1445 172.455 44.1445C173.876 44.1445 174.801 43.8999 176.039 43.4423C177.855 44.1304 179.779 44.4939 181.724 44.5158C194.651 44.4107 194.735 31.5655 194.739 28.2401C194.739 24.9263 194.662 12.0752 181.728 11.9702ZM139.17 16.0092C139.775 16.7575 140.11 17.4223 140.11 18.4453C140.11 19.254 139.615 20.0886 138.658 20.0886H137.135C135.16 20.0339 134.077 19.3533 133.443 18.1791C133.175 17.695 133.057 17.1437 133.102 16.5934C133.147 16.0431 133.353 15.5178 133.696 15.0826C134.285 14.2823 135.084 13.6564 136.005 13.2724C137.218 13.9027 138.231 14.8336 139.166 16.0092H139.17ZM156.06 28.8632H149.933V13.6696C149.933 12.7731 150.488 12.5774 150.781 12.5299L156.102 12.4997C157.185 12.4997 158.175 13.3818 158.374 13.5429C159.794 14.6639 161.279 16.8668 161.287 20.9232C161.263 27.6947 157.158 28.8329 156.055 28.8632H156.06ZM181.732 44.2683C180.037 44.2438 178.47 43.7603 177.141 42.6552C178.532 41.5228 180.669 38.6996 180.669 34.3814L177.539 34.3282V34.6519C178.875 34.6822 180.193 34.6203 179.88 37.1111C179.603 39.3169 178.299 41.4278 176.926 42.4739C174.493 40.2853 172.916 35.8995 172.916 28.2444C172.916 16.274 176.773 12.2954 181.728 12.2206C186.684 12.2954 190.54 16.2625 190.54 28.2444C190.54 40.2263 186.684 44.1949 181.728 44.2683H181.732Z" fill="#A21A1A"/>
<path d="M42.286 42.5777C42.286 42.4784 42.2759 12.6927 42.2759 12.6927H52.815C55.3235 12.6927 57.2988 14.0467 57.2988 16.821H57.6518V12.4322L37.5147 12.4063V12.6941H38.1247C38.405 12.7272 39.018 12.9071 39.018 13.7978V26.6776C38.9628 28.1338 38.071 29.7555 36.6592 30.9454C35.1079 32.2534 33.089 32.9599 30.8246 33.0304L23.4968 12.0049H20.0109V12.284H20.2506C21.093 12.284 21.3675 12.7157 21.4343 13.0409C21.5331 13.5258 21.3486 14.2395 21.1947 14.7158L16.6601 26.8431C15.6985 28.8576 14.6774 29.4173 13.0724 29.7382L12.9969 29.754L12.8807 29.7756H12.8909C12.2219 29.9037 11.5709 30.111 10.9518 30.3929C10.093 30.7807 9.32314 31.338 8.68928 32.0308C8.05542 32.7236 7.57093 33.5372 7.26545 34.4219C6.05409 37.8177 7.35405 41.9489 10.044 43.3317C9.78404 43.4598 9.44997 43.5116 8.98228 43.5116V43.7994H12.4682V43.5116H11.8204C10.9867 43.5116 11.1436 42.5345 11.267 42.0726L14.8662 32.4621C15.8699 30.1152 17.1626 30.0778 18.9332 30.3397C20.4971 30.71 22.0331 31.1874 23.5303 31.7685C24.73 32.2088 25.8775 32.6319 27.2602 32.9384L30.4745 42.0583C30.736 43.0151 30.3627 43.5202 29.8296 43.5202H29.0104V43.808H35.8952V43.5202H35.2517C34.5952 43.5202 34.2219 42.736 33.9271 41.9259L30.9233 33.3139C33.2168 33.2305 35.2662 32.498 36.848 31.1642C37.8252 30.356 38.5731 29.3096 39.018 28.128V42.759C39.018 43.7806 38.3571 43.9245 38.0826 43.9461H37.5234V44.2339H43.6557V43.9461H43.2287C42.9382 43.9231 42.286 43.7547 42.286 42.5777ZM10.1936 43.2468L10.2575 43.1187C7.63148 41.8395 6.36201 37.8221 7.53852 34.5183C8.00476 33.2132 9.32651 30.7958 12.8328 30.0576C15.1437 29.7698 14.9999 31.416 13.7769 34.4852L14.0892 33.7082L11.0651 41.782H11.055C10.7732 42.5403 10.5597 42.9964 10.1936 43.2468ZM23.6319 31.498C22.2434 30.9886 20.8098 30.4605 18.817 30.0159L18.7632 30.0044C16.8663 29.3943 16.5569 28.4014 16.9259 26.9611L21.1656 15.641L27.1469 32.6203C25.952 32.3219 24.7778 31.947 23.6319 31.498Z" fill="#A21A1A"/>
<path d="M96.6101 11.9702C83.6831 12.0753 83.5989 24.9205 83.5945 28.2444C83.5945 30.9784 83.6526 40.1875 90.9092 43.4021C89.7375 43.7584 88.5182 43.9374 87.2925 43.933C86.3567 43.9325 85.4303 43.7471 84.5677 43.3877C80.3555 41.661 80.5283 38.0047 77.4505 33.685C75.9676 31.6029 73.8077 30.4215 71.6711 29.7683C71.4838 29.6934 71.491 29.5927 71.4925 29.5438C71.4925 29.4844 71.5161 29.4273 71.5582 29.3851C71.6004 29.3428 71.6576 29.3186 71.7176 29.3179C78.3351 29.174 79.4796 23.8111 79.4796 21.1045C79.4796 18.3619 78.3089 12.3616 71.4533 12.3616L70.3305 12.3904L59.9061 12.4091V12.6969H60.3331C60.6236 12.7199 61.3208 12.9012 61.3208 14.0653V19.6008C59.4326 22.4096 56.7978 26.8026 51.7795 26.8026H49.4483V26.8228H47.8709C46.0655 26.8228 44.125 25.9954 44.125 24.2083V23.0859H43.8345V30.7741H44.125V29.6517C44.125 27.8646 46.0655 27.0372 47.8709 27.0372H49.4483V27.0516H51.7839C56.7484 27.0516 59.4239 22.8327 61.3252 20.0498V42.7992C61.3252 43.874 60.6643 43.9661 60.3898 43.9877H59.8306V44.2755H65.9615V43.9877H65.5344C65.2439 43.9647 64.5932 43.7834 64.5932 42.6193C64.5932 42.52 64.5932 42.4394 64.5831 42.3761V29.3222H68.7415C71.9921 29.3222 73.1294 34.3052 74.9014 36.8348C76.6735 39.3644 80.2843 44.3172 87.1124 44.3172C88.581 44.3249 90.0404 44.087 91.4291 43.6136C92.8744 44.1705 94.5839 44.4985 96.6101 44.5158C109.544 44.4108 109.621 31.5655 109.626 28.2401C109.621 24.9263 109.544 12.0753 96.6101 11.9702ZM64.5831 13.8408C64.5831 12.9444 65.1379 12.7487 65.4313 12.7012L70.7503 12.671C70.8102 12.6717 70.8675 12.6959 70.9096 12.7381C70.9518 12.7804 70.9754 12.8375 70.9754 12.8969C70.9758 12.9568 70.9524 13.0145 70.9103 13.0576C70.8682 13.1006 70.8108 13.1256 70.7503 13.1271C68.1736 13.3429 66.1764 14.0854 64.5874 15.4092L64.5831 13.8408ZM70.7096 29.0272H64.5831V15.7474C66.3841 14.1746 68.74 13.3228 71.9326 13.3228C72.3326 13.3196 72.7201 13.4613 73.0219 13.7214C74.4439 14.8423 75.9269 17.0439 75.9356 21.1016C75.9167 27.8674 71.8106 29.0042 70.7096 29.0344V29.0272ZM87.798 28.2372C87.798 16.2668 91.6557 12.2882 96.6101 12.2134C97.8539 12.2124 99.0778 12.5222 100.169 13.1142C101.111 13.6739 101.32 13.9142 101.752 14.8855C104.512 22.7017 101.7 38.6277 92.3006 42.8697C89.5903 40.8494 87.798 36.4046 87.798 28.2444V28.2372ZM96.6101 44.2611C95.1765 44.2395 93.8344 43.8899 92.6507 43.11C101.947 38.7543 104.512 23.6097 102.339 15.7618C102.322 15.71 102.324 15.654 102.346 15.6038C102.367 15.5537 102.405 15.5126 102.454 15.488C102.503 15.4634 102.559 15.4569 102.613 15.4696C102.666 15.4824 102.713 15.5135 102.745 15.5575C104.404 18.041 105.421 22.0801 105.421 28.2301C105.422 40.2278 101.566 44.1949 96.6101 44.2683V44.2611Z" fill="#A21A1A"/>
<path d="M227.295 12.1416H223.617V12.4294H223.921C224.511 12.4294 225.36 12.8855 224.977 14.1834L217.102 38.0048L211.858 12.1416H206.529C204.485 12.1805 204.224 12.5301 204.224 13.3129C204.224 14.8612 206.943 16.349 210.179 21.486C210.777 22.5709 211.051 23.1292 210.602 24.4732L205.244 38.3401L199.76 12.1416H195.085V12.4294H195.45C196.128 12.4294 196.571 12.8611 196.765 13.7877L202.956 44.2426H203.323C203.36 44.0824 203.409 43.9251 203.469 43.772L210.859 24.5682L214.975 44.2411L215.292 44.2339L225.481 13.6554C225.721 12.9042 226.389 12.4323 226.883 12.4351H227.295V12.1416ZM204.546 13.3302C204.546 12.5718 205.1 12.497 206.227 12.4438C207.325 12.392 208.475 12.251 208.841 14.064L210.236 21.0903C208.019 17.0944 204.546 14.6453 204.546 13.3302Z" fill="#A21A1A"/>
<path d="M249.187 12.1431H247.464V38.3315L229.097 12.1431H227.375V12.3949H227.802C228.092 12.4179 228.747 12.6006 228.747 13.7662C228.747 13.9806 228.794 42.631 228.794 42.631C228.729 43.6382 228.133 43.798 227.857 43.8195H227.298V44.1073H229.1V17.9189L247.467 44.0714H247.757H247.772C247.772 44.0714 247.817 14.0137 247.817 13.7993C247.817 12.6337 248.472 12.428 248.764 12.405H249.191L249.187 12.1431Z" fill="#A21A1A"/>
<path d="M128 59L128.169 62.3034C128.406 66.9114 132.089 70.5942 136.697 70.8306L140 71L136.697 71.1694C132.089 71.4058 128.406 75.0886 128.169 79.6966L128 83L127.831 79.6966C127.594 75.0886 123.911 71.4058 119.303 71.1694L116 71L119.303 70.8306C123.911 70.5942 127.594 66.9114 127.831 62.3034L128 59Z" fill="#A21A1A"/>
<path fill-rule="evenodd" clip-rule="evenodd" d="M106 70.4277H45V71.4277H106V70.4277ZM151 71.4277H211V70.4277H151V71.4277Z" fill="#A21A1A"/>
</svg>
