<svg width="32" height="32" viewBox="0 0 32 32" fill="none" xmlns="http://www.w3.org/2000/svg">
<path d="M28.3428 14.6158C28.9748 15.4425 28.9748 16.5585 28.3428 17.3838C26.3522 19.9825 21.5762 25.3332 16.0002 25.3332C10.4242 25.3332 5.64818 19.9825 3.65751 17.3838C3.35002 16.988 3.18311 16.5011 3.18311 15.9998C3.18311 15.4986 3.35002 15.0117 3.65751 14.6158C5.64818 12.0172 10.4242 6.6665 16.0002 6.6665C21.5762 6.6665 26.3522 12.0172 28.3428 14.6158Z" stroke="#C7C7C7" stroke-linecap="round" stroke-linejoin="round"/>
<path d="M16 20C18.2091 20 20 18.2091 20 16C20 13.7909 18.2091 12 16 12C13.7909 12 12 13.7909 12 16C12 18.2091 13.7909 20 16 20Z" stroke="#C7C7C7" stroke-linecap="round" stroke-linejoin="round"/>
</svg>
