<svg width="391" height="176" viewBox="0 0 391 176" fill="none" xmlns="http://www.w3.org/2000/svg">
<path d="M351.843 108.9C350.918 115.421 345.837 121.166 337.142 125.926C328.46 130.679 316.304 134.374 301.515 136.839C271.947 141.769 232.022 141.759 188.76 135.619C145.498 129.48 107.147 118.38 80.1183 105.418C66.5999 98.9344 55.9516 92.003 48.9354 85.0225C41.9079 78.0308 38.6266 71.0988 39.552 64.5783C40.4775 58.0578 45.558 52.3125 54.2534 47.5522C62.9348 42.7997 75.0912 39.1048 89.8797 36.639C119.448 31.7089 159.373 31.719 202.635 37.8589C245.897 43.9988 284.248 55.0981 311.277 68.0607C324.795 74.544 335.443 81.4754 342.46 88.4558C349.487 95.4476 352.768 102.38 351.843 108.9Z" stroke="#FF6734" stroke-width="1.42905"/>
<path d="M99.0769 84.8258L102.296 62.1468L118.694 64.4741L118.314 67.1504L104.917 65.249L103.931 72.195L116.477 73.9756L116.1 76.6365L103.554 74.8559L102.458 82.5754L116.381 84.5514L116.001 87.2277L99.0769 84.8258ZM120.688 87.8929L123.907 65.2139L128.424 65.855L131.513 82.6747C131.796 84.2404 131.998 85.4106 132.119 86.1854C132.494 85.3969 133.068 84.2422 133.842 82.7212L141.511 67.7125L145.549 68.2855L142.33 90.9645L139.437 90.5539L142.131 71.5723L132.847 89.6186L130.14 89.2344L126.321 68.9969L123.581 88.3035L120.688 87.8929ZM153.003 92.4793L164.932 71.0364L168.165 71.4953L174.228 95.4916L170.809 95.0064L169.139 87.7622L159.656 86.4164L156.19 92.9315L153.003 92.4793ZM160.869 84.0951L168.558 85.1863L167.082 78.5695C166.631 76.5591 166.317 74.9154 166.141 73.6383C165.645 75.0515 165.033 76.4376 164.304 77.7965L160.869 84.0951ZM177.229 95.9174L180.447 73.2384L183.526 73.6754L192.911 93.1719L195.438 75.366L198.315 75.7743L195.097 98.4533L192.018 98.0164L182.635 78.5044L180.106 96.3258L177.229 95.9174ZM198.298 98.9077L210.227 77.4648L213.46 77.9237L219.523 101.92L216.104 101.435L214.434 94.1907L204.951 92.8448L201.485 99.36L198.298 98.9077ZM206.164 90.5235L213.852 91.6147L212.377 84.998C211.926 82.9876 211.612 81.3438 211.435 80.0668C210.94 81.48 210.328 82.866 209.599 84.2249L206.164 90.5235ZM210.13 76.0308L212.803 71.9912L216.453 72.5094L212.435 76.358L210.13 76.0308ZM222.431 102.333L225.65 79.6537L228.651 80.0797L225.812 100.082L236.981 101.668L236.601 104.344L222.431 102.333ZM241.335 105.016L244.553 82.3366L247.554 82.7626L244.336 105.442L241.335 105.016ZM250.289 98.8533L253.155 99.0076C253.128 100.161 253.305 101.138 253.686 101.939C254.078 102.732 254.758 103.428 255.725 104.028C256.693 104.618 257.822 105.004 259.111 105.187C260.256 105.35 261.291 105.323 262.216 105.107C263.141 104.891 263.856 104.519 264.363 103.991C264.881 103.455 265.189 102.836 265.289 102.134C265.39 101.423 265.271 100.775 264.934 100.19C264.597 99.5952 263.98 99.05 263.083 98.5543C262.508 98.2308 261.214 97.6736 259.201 96.8829C257.189 96.0819 255.797 95.4004 255.025 94.8384C254.022 94.1174 253.312 93.3012 252.895 92.3897C252.489 91.4694 252.36 90.4884 252.507 89.4468C252.67 88.302 253.146 87.2807 253.936 86.3828C254.728 85.4746 255.785 84.8512 257.106 84.5127C258.427 84.1741 259.851 84.1132 261.377 84.3298C263.058 84.5684 264.499 85.0517 265.7 85.7798C266.913 86.4991 267.791 87.4337 268.333 88.5838C268.874 89.7338 269.076 90.9777 268.939 92.3154L266.031 92.1236C266.08 90.6681 265.708 89.5106 264.914 88.651C264.131 87.7928 262.868 87.2401 261.125 86.9927C259.31 86.7351 257.937 86.8822 257.007 87.434C256.088 87.977 255.562 88.7177 255.429 89.6562C255.313 90.471 255.512 91.183 256.025 91.7925C256.528 92.4004 257.957 93.1556 260.312 94.0579C262.679 94.9514 264.286 95.6688 265.135 96.2102C266.369 97.006 267.234 97.9178 267.73 98.9456C268.227 99.9631 268.39 101.08 268.217 102.297C268.046 103.504 267.538 104.595 266.695 105.569C265.853 106.533 264.74 107.222 263.356 107.636C261.983 108.041 260.488 108.128 258.868 107.899C256.816 107.607 255.136 107.064 253.829 106.268C252.532 105.474 251.571 104.422 250.947 103.113C250.334 101.795 250.115 100.375 250.289 98.8533ZM272.103 109.382L275.322 86.7035L291.72 89.0308L291.34 91.7071L277.943 89.8057L276.957 96.7517L289.503 98.5323L289.126 101.193L276.58 99.4126L275.484 107.132L289.407 109.108L289.027 111.784L272.103 109.382Z" fill="#FFD6AD"/>
<path d="M75.6332 33.2394L75.6427 33.6683L76.0257 33.8615L90.3121 41.0692L74.5843 44.0172L74.1627 44.0962L74.0342 44.5055L67.8686 64.1527L67.4132 43.5659L67.4038 43.137L67.0207 42.9437L52.7343 35.736L68.4621 32.788L68.8837 32.709L69.0122 32.2997L75.1778 12.6525L75.6332 33.2394Z" fill="#FF6734" stroke="#FF6734" stroke-width="1.42905"/>
<path d="M320.745 125.881L320.755 126.31L321.138 126.503L337.802 134.911L319.456 138.349L319.035 138.428L318.906 138.838L311.643 161.983L311.106 137.731L311.097 137.302L310.714 137.109L294.049 128.701L312.395 125.262L312.817 125.183L312.945 124.774L320.209 101.628L320.745 125.881Z" fill="#FF6734" stroke="#FF6734" stroke-width="1.42905"/>
</svg>
