<svg width="18" height="18" viewBox="0 0 18 18" fill="none" xmlns="http://www.w3.org/2000/svg">
<path fill-rule="evenodd" clip-rule="evenodd" d="M4.5 3.28125C2.99848 3.28125 1.78125 4.49848 1.78125 6V13.5C1.78125 15.0015 2.99848 16.2188 4.5 16.2188H13.5C15.0015 16.2188 16.2188 15.0015 16.2188 13.5V6C16.2188 4.49848 15.0015 3.28125 13.5 3.28125H4.5ZM11.9851 8.76328C12.0525 8.69139 12.105 8.60692 12.1397 8.51472C12.1744 8.42251 12.1907 8.32437 12.1875 8.22589C12.1843 8.12741 12.1617 8.03053 12.1211 7.94078C12.0804 7.85102 12.0225 7.77015 11.9506 7.70278C11.8787 7.63542 11.7942 7.58287 11.702 7.54814C11.6098 7.51342 11.5117 7.49719 11.4132 7.5004C11.3147 7.5036 11.2178 7.52617 11.1281 7.56681C11.0383 7.60746 10.9575 7.66539 10.8901 7.73728L8.57783 10.2048L7.43558 9.19003C7.28593 9.06562 7.09377 9.00426 6.89971 9.0189C6.70564 9.03354 6.52487 9.12304 6.39557 9.2685C6.26628 9.41396 6.19859 9.60398 6.2068 9.79842C6.21501 9.99286 6.29848 10.1765 6.43958 10.3105L8.12708 11.8105C8.2731 11.9402 8.46395 12.0079 8.65905 11.999C8.85416 11.9902 9.03812 11.9056 9.17183 11.7633L11.9851 8.76328Z" fill="#A21A1A"/>
<path d="M6 1.125V4.125M12 1.125V4.125" stroke="#A21A1A" stroke-width="1.125" stroke-linecap="round" stroke-linejoin="round"/>
</svg>
