<svg width="86" height="87" viewBox="0 0 86 87" fill="none" xmlns="http://www.w3.org/2000/svg">
<rect opacity="0.4" x="0.859999" y="0.859999" width="84.28" height="75.6799" rx="1.72" fill="#FAFAFA" stroke="#949494" stroke-width="1.72"/>
<path d="M66.378 17.0185V60.0967C66.378 60.9465 65.6892 61.6352 64.8395 61.6352H21.7612C20.9115 61.6352 20.2227 60.9465 20.2227 60.0967V17.0185C20.2227 16.1688 20.9115 15.48 21.7612 15.48H64.8395C65.6892 15.48 66.378 16.1688 66.378 17.0185Z" stroke="#C7C7C7" stroke-width="1.72" stroke-linecap="round" stroke-linejoin="round"/>
<path d="M20.2227 48.8144L38.1719 41.1218L66.378 53.9427" stroke="#C7C7C7" stroke-width="1.72" stroke-linecap="round" stroke-linejoin="round"/>
<path d="M53.5581 33.4293C50.7257 33.4293 48.4297 31.1333 48.4297 28.301C48.4297 25.4687 50.7257 23.1726 53.5581 23.1726C56.3905 23.1726 58.6864 25.4687 58.6864 28.301C58.6864 31.1333 56.3905 33.4293 53.5581 33.4293Z" stroke="#C7C7C7" stroke-width="1.72" stroke-linecap="round" stroke-linejoin="round"/>
<rect x="57" y="66" width="22" height="21" rx="10.5" fill="#FAFAFA"/>
<path d="M67.0641 81.9959V77.3879H62.7441V75.6119H67.0641V71.0039H68.9361V75.6119H73.2561V77.3879H68.9361V81.9959H67.0641Z" fill="#C7C7C7"/>
</svg>
