<svg width="52" height="52" viewBox="0 0 52 52" fill="none" xmlns="http://www.w3.org/2000/svg">
<path d="M10.6283 21.3997C10.6954 20.5643 11.0746 19.7849 11.6904 19.2166C12.3063 18.6483 13.1136 18.3328 13.9516 18.333H34.0483C34.8863 18.3328 35.6937 18.6483 36.3095 19.2166C36.9254 19.7849 37.3046 20.5643 37.3716 21.3997L38.71 38.0663C38.7468 38.525 38.6882 38.9863 38.538 39.4212C38.3878 39.8561 38.1492 40.2553 37.8372 40.5934C37.5251 40.9316 37.1465 41.2015 36.725 41.3862C36.3036 41.5708 35.8484 41.6662 35.3883 41.6663H12.6116C12.1515 41.6662 11.6964 41.5708 11.2749 41.3862C10.8535 41.2015 10.4748 40.9316 10.1628 40.5934C9.85078 40.2553 9.61215 39.8561 9.46193 39.4212C9.31172 38.9863 9.25317 38.525 9.28998 38.0663L10.6283 21.3997Z" stroke="#A21A1A" stroke-linecap="round" stroke-linejoin="round"/>
<path d="M30.6668 23.333V14.9997C30.6668 13.2316 29.9645 11.5359 28.7142 10.2856C27.464 9.03539 25.7683 8.33301 24.0002 8.33301C22.2321 8.33301 20.5364 9.03539 19.2861 10.2856C18.0359 11.5359 17.3335 13.2316 17.3335 14.9997V23.333" stroke="#A21A1A" stroke-linecap="round" stroke-linejoin="round"/>
<rect x="0.5" y="32.5" width="21" height="18.7227" rx="4.5" fill="white"/>
<path opacity="0.5" d="M10.952 46.144C10.2 46.144 9.608 45.8 9.176 45.112C8.752 44.416 8.54 43.428 8.54 42.148C8.54 40.86 8.752 39.88 9.176 39.208C9.608 38.536 10.2 38.2 10.952 38.2C11.712 38.2 12.304 38.54 12.728 39.22C13.152 39.892 13.364 40.868 13.364 42.148C13.364 43.428 13.152 44.416 12.728 45.112C12.304 45.8 11.712 46.144 10.952 46.144ZM10.952 45.436C11.264 45.436 11.536 45.32 11.768 45.088C12.008 44.856 12.192 44.496 12.32 44.008C12.448 43.52 12.512 42.9 12.512 42.148C12.512 41.388 12.448 40.772 12.32 40.3C12.192 39.82 12.008 39.468 11.768 39.244C11.536 39.02 11.264 38.908 10.952 38.908C10.64 38.908 10.368 39.02 10.136 39.244C9.904 39.468 9.72 39.82 9.584 40.3C9.456 40.772 9.392 41.388 9.392 42.148C9.392 42.9 9.456 43.52 9.584 44.008C9.72 44.496 9.904 44.856 10.136 45.088C10.368 45.32 10.64 45.436 10.952 45.436Z" fill="#A21A1A"/>
<rect x="0.5" y="32.5" width="21" height="18.7227" rx="4.5" stroke="#A21A1A"/>
</svg>
