<svg width="48" height="48" viewBox="0 0 48 48" fill="none" xmlns="http://www.w3.org/2000/svg">
<circle cx="24" cy="24" r="23.5" stroke="#A21A1A"/>
<path d="M23.7497 23.7503C26.9138 23.7503 29.4788 21.1853 29.4788 18.0212C29.4788 14.857 26.9138 12.292 23.7497 12.292C20.5855 12.292 18.0205 14.857 18.0205 18.0212C18.0205 21.1853 20.5855 23.7503 23.7497 23.7503Z" stroke="#A21A1A"/>
<path d="M29.4791 26.042H29.8824C30.7201 26.0422 31.5289 26.3483 32.1568 26.9028C32.7847 27.4573 33.1885 28.222 33.2924 29.0532L33.7404 32.6328C33.7807 32.9553 33.752 33.2827 33.6561 33.5932C33.5602 33.9037 33.3994 34.1902 33.1843 34.4338C32.9692 34.6774 32.7047 34.8725 32.4085 35.0061C32.1122 35.1397 31.7909 35.2087 31.4659 35.2087H16.0339C15.7089 35.2087 15.3876 35.1397 15.0914 35.0061C14.7951 34.8725 14.5306 34.6774 14.3155 34.4338C14.1004 34.1902 13.9396 33.9037 13.8437 33.5932C13.7478 33.2827 13.7191 32.9553 13.7594 32.6328L14.2063 29.0532C14.3102 28.2216 14.7143 27.4566 15.3427 26.9021C15.9711 26.3475 16.7805 26.0417 17.6186 26.042H18.0207" stroke="#A21A1A" stroke-linecap="round" stroke-linejoin="round"/>
</svg>
